{
	"patcher" : 	{
		"fileversion" : 1,
		"appversion" : 		{
			"major" : 8,
			"minor" : 0,
			"revision" : 2,
			"architecture" : "x64",
			"modernui" : 1
		}
,
		"classnamespace" : "box",
		"rect" : [ 34.0, 77.0, 1362.0, 939.0 ],
		"openrect" : [ 0.0, 0.0, 466.04278028011322, 501.058822154998779 ],
		"bglocked" : 1,
		"openinpresentation" : 1,
		"default_fontsize" : 12.0,
		"default_fontface" : 1,
		"default_fontname" : "Consolas",
		"gridonopen" : 1,
		"gridsize" : [ 15.0, 15.0 ],
		"gridsnaponopen" : 2,
		"objectsnaponopen" : 0,
		"statusbarvisible" : 2,
		"toolbarvisible" : 1,
		"lefttoolbarpinned" : 0,
		"toptoolbarpinned" : 0,
		"righttoolbarpinned" : 0,
		"bottomtoolbarpinned" : 0,
		"toolbars_unpinned_last_save" : 0,
		"tallnewobj" : 0,
		"boxanimatetime" : 200,
		"enablehscroll" : 1,
		"enablevscroll" : 1,
		"devicewidth" : 0.0,
		"description" : "",
		"digest" : "",
		"tags" : "",
		"style" : "",
		"subpatcher_template" : "ManipAliasingSpatial",
		"boxes" : [ 			{
				"box" : 				{
					"id" : "obj-142",
					"maxclass" : "newobj",
					"numinlets" : 2,
					"numoutlets" : 1,
					"outlettype" : [ "int" ],
					"patching_rect" : [ 1155.0, 165.0, 29.5, 23.0 ],
					"text" : "&&"
				}

			}
, 			{
				"box" : 				{
					"color" : [ 0.823529411764706, 0.788235294117647, 0.647058823529412, 1.0 ],
					"id" : "obj-132",
					"maxclass" : "newobj",
					"numinlets" : 1,
					"numoutlets" : 1,
					"outlettype" : [ "" ],
					"patching_rect" : [ 1155.0, 135.0, 107.0, 23.0 ],
					"text" : "v rec_auto_mode"
				}

			}
, 			{
				"box" : 				{
					"color" : [ 0.341176470588235, 0.282352941176471, 0.32156862745098, 1.0 ],
					"id" : "obj-85",
					"linecount" : 2,
					"maxclass" : "newobj",
					"numinlets" : 2,
					"numoutlets" : 0,
					"patching_rect" : [ 1155.0, 900.0, 220.0, 37.0 ],
					"text" : "GUIforward mira_toggle_auto_rec recorder::toggle_auto_rec",
					"varname" : "GUIforward[8]"
				}

			}
, 			{
				"box" : 				{
					"bgcolor" : [ 1.0, 1.0, 1.0, 0.0 ],
					"id" : "obj-53",
					"maxclass" : "comment",
					"numinlets" : 1,
					"numoutlets" : 0,
					"patching_rect" : [ 960.0, 615.0, 75.0, 21.0 ],
					"presentation" : 1,
					"presentation_rect" : [ 195.106353759765625, 244.5, 90.0, 21.0 ],
					"text" : "AUTO REC",
					"textcolor" : [ 0.20392157137394, 0.596078455448151, 0.858823537826538, 1.0 ],
					"textjustification" : 1
				}

			}
, 			{
				"box" : 				{
					"bgcolor" : [ 0.203921568627451, 0.596078431372549, 0.858823529411765, 1.0 ],
					"checkedcolor" : [ 0.823529411764706, 0.788235294117647, 0.647058823529412, 1.0 ],
					"id" : "obj-68",
					"maxclass" : "toggle",
					"numinlets" : 1,
					"numoutlets" : 1,
					"outlettype" : [ "int" ],
					"parameter_enable" : 1,
					"patching_rect" : [ 945.0, 615.0, 30.0, 30.0 ],
					"presentation" : 1,
					"presentation_rect" : [ 180.0, 240.0, 30.0, 30.0 ],
					"saved_attribute_attributes" : 					{
						"valueof" : 						{
							"parameter_enum" : [ "off", "on" ],
							"parameter_type" : 2,
							"parameter_longname" : "toggle[9]",
							"parameter_mmax" : 1.0,
							"parameter_shortname" : "toggle[2]"
						}

					}
,
					"varname" : "mira_toggle_auto_rec"
				}

			}
, 			{
				"box" : 				{
					"id" : "obj-95",
					"maxclass" : "newobj",
					"numinlets" : 2,
					"numoutlets" : 2,
					"outlettype" : [ "bang", "bang" ],
					"patching_rect" : [ 1770.0, 105.0, 55.0, 23.0 ],
					"text" : "onebang"
				}

			}
, 			{
				"box" : 				{
					"bgcolor" : [ 1.0, 1.0, 1.0, 0.0 ],
					"id" : "obj-11",
					"maxclass" : "comment",
					"numinlets" : 1,
					"numoutlets" : 0,
					"patching_rect" : [ 869.878051280975342, 840.365860462188721, 75.0, 21.0 ],
					"presentation" : 1,
					"presentation_rect" : [ 105.0, 465.0, 75.0, 21.0 ],
					"text" : "TO",
					"textcolor" : [ 0.10196078568697, 0.737254917621613, 0.61176472902298, 1.0 ],
					"textjustification" : 1
				}

			}
, 			{
				"box" : 				{
					"bgcolor" : [ 0.341176470588235, 0.282352941176471, 0.32156862745098, 0.0 ],
					"id" : "obj-20",
					"maxclass" : "comment",
					"numinlets" : 1,
					"numoutlets" : 0,
					"patching_rect" : [ 795.487805604934692, 840.365860462188721, 75.0, 21.0 ],
					"presentation" : 1,
					"presentation_rect" : [ 30.0, 465.0, 75.0, 21.0 ],
					"text" : "FROM",
					"textcolor" : [ 0.10196078568697, 0.737254917621613, 0.61176472902298, 1.0 ],
					"textjustification" : 1
				}

			}
, 			{
				"box" : 				{
					"bgcolor" : [ 0.172549019607843, 0.211764705882353, 0.223529411764706, 1.0 ],
					"checkedcolor" : [ 0.901960784313726, 0.494117647058824, 0.133333333333333, 1.0 ],
					"id" : "obj-107",
					"maxclass" : "toggle",
					"numinlets" : 1,
					"numoutlets" : 1,
					"outlettype" : [ "int" ],
					"parameter_enable" : 1,
					"patching_rect" : [ 869.878051280975342, 780.609761476516724, 75.0, 75.0 ],
					"presentation" : 1,
					"presentation_rect" : [ 105.0, 405.0, 75.0, 75.0 ],
					"saved_attribute_attributes" : 					{
						"valueof" : 						{
							"parameter_enum" : [ "off", "on" ],
							"parameter_type" : 2,
							"parameter_longname" : "toggle[6]",
							"parameter_mmax" : 1.0,
							"parameter_shortname" : "toggle[2]"
						}

					}
,
					"varname" : "mira_toggle_to"
				}

			}
, 			{
				"box" : 				{
					"bgcolor" : [ 0.172549019607843, 0.211764705882353, 0.223529411764706, 1.0 ],
					"checkedcolor" : [ 0.901960784313726, 0.494117647058824, 0.133333333333333, 1.0 ],
					"id" : "obj-98",
					"maxclass" : "toggle",
					"numinlets" : 1,
					"numoutlets" : 1,
					"outlettype" : [ "int" ],
					"parameter_enable" : 1,
					"patching_rect" : [ 795.487805604934692, 780.609761476516724, 75.0, 75.0 ],
					"presentation" : 1,
					"presentation_rect" : [ 30.0, 405.0, 75.0, 75.0 ],
					"saved_attribute_attributes" : 					{
						"valueof" : 						{
							"parameter_enum" : [ "off", "on" ],
							"parameter_type" : 2,
							"parameter_longname" : "toggle[5]",
							"parameter_mmax" : 1.0,
							"parameter_shortname" : "toggle[2]"
						}

					}
,
					"varname" : "mira_toggle_from"
				}

			}
, 			{
				"box" : 				{
					"bgcolor" : [ 0.203921568627451, 0.286274509803922, 0.368627450980392, 1.0 ],
					"id" : "obj-21",
					"maxclass" : "comment",
					"numinlets" : 1,
					"numoutlets" : 0,
					"patching_rect" : [ 795.487805604934692, 764.756102561950684, 150.0, 21.0 ],
					"presentation" : 1,
					"presentation_rect" : [ 30.0, 390.0, 150.0, 21.0 ],
					"text" : "Orientation Control",
					"textcolor" : [ 0.945098042488098, 0.768627464771271, 0.058823529630899, 1.0 ],
					"textjustification" : 1
				}

			}
, 			{
				"box" : 				{
					"bgcolor" : [ 0.172549019607843, 0.211764705882353, 0.223529411764706, 1.0 ],
					"id" : "obj-178",
					"maxclass" : "comment",
					"numinlets" : 1,
					"numoutlets" : 0,
					"patching_rect" : [ 914.893616378307343, 900.0, 30.0, 21.0 ],
					"presentation" : 1,
					"presentation_rect" : [ 135.0, 375.0, 30.0, 21.0 ],
					"text" : "0",
					"textcolor" : [ 0.10196078568697, 0.737254917621613, 0.61176472902298, 1.0 ],
					"textjustification" : 1
				}

			}
, 			{
				"box" : 				{
					"bgcolor" : [ 0.172549019607843, 0.211764705882353, 0.223529411764706, 1.0 ],
					"id" : "obj-177",
					"maxclass" : "comment",
					"numinlets" : 1,
					"numoutlets" : 0,
					"patching_rect" : [ 869.680850744247437, 900.0, 30.0, 21.0 ],
					"presentation" : 1,
					"presentation_rect" : [ 90.0, 375.0, 30.0, 21.0 ],
					"text" : "0",
					"textcolor" : [ 0.10196078568697, 0.737254917621613, 0.61176472902298, 1.0 ],
					"textjustification" : 1
				}

			}
, 			{
				"box" : 				{
					"color" : [ 0.294117647058824, 0.447058823529412, 0.431372549019608, 1.0 ],
					"id" : "obj-176",
					"maxclass" : "newobj",
					"numinlets" : 0,
					"numoutlets" : 1,
					"outlettype" : [ "" ],
					"patching_rect" : [ 645.0, 900.106382548809052, 101.0, 23.0 ],
					"text" : "r #0tomira_R"
				}

			}
, 			{
				"box" : 				{
					"color" : [ 0.294117647058824, 0.447058823529412, 0.431372549019608, 1.0 ],
					"id" : "obj-175",
					"maxclass" : "newobj",
					"numinlets" : 0,
					"numoutlets" : 1,
					"outlettype" : [ "" ],
					"patching_rect" : [ 645.0, 869.787233829498291, 101.0, 23.0 ],
					"text" : "r #0tomira_P"
				}

			}
, 			{
				"box" : 				{
					"color" : [ 0.682352941176471, 0.364705882352941, 0.250980392156863, 1.0 ],
					"id" : "obj-171",
					"maxclass" : "newobj",
					"numinlets" : 1,
					"numoutlets" : 0,
					"patching_rect" : [ 1770.0, 915.0, 101.0, 23.0 ],
					"text" : "s #0tomira_R"
				}

			}
, 			{
				"box" : 				{
					"color" : [ 0.682352941176471, 0.364705882352941, 0.250980392156863, 1.0 ],
					"id" : "obj-164",
					"maxclass" : "newobj",
					"numinlets" : 1,
					"numoutlets" : 0,
					"patching_rect" : [ 1770.0, 885.0, 101.0, 23.0 ],
					"text" : "s #0tomira_P"
				}

			}
, 			{
				"box" : 				{
					"id" : "obj-161",
					"maxclass" : "newobj",
					"numinlets" : 1,
					"numoutlets" : 1,
					"outlettype" : [ "" ],
					"patching_rect" : [ 1800.0, 825.0, 81.0, 23.0 ],
					"text" : "prepend set"
				}

			}
, 			{
				"box" : 				{
					"id" : "obj-159",
					"maxclass" : "newobj",
					"numinlets" : 1,
					"numoutlets" : 1,
					"outlettype" : [ "" ],
					"patching_rect" : [ 1785.0, 795.0, 81.0, 23.0 ],
					"text" : "prepend set"
				}

			}
, 			{
				"box" : 				{
					"id" : "obj-154",
					"maxclass" : "newobj",
					"numinlets" : 1,
					"numoutlets" : 3,
					"outlettype" : [ "int", "int", "int" ],
					"patching_rect" : [ 1770.0, 735.0, 88.0, 23.0 ],
					"text" : "unpack 0 0 0"
				}

			}
, 			{
				"box" : 				{
					"id" : "obj-150",
					"maxclass" : "newobj",
					"numinlets" : 1,
					"numoutlets" : 1,
					"outlettype" : [ "" ],
					"patching_rect" : [ 1770.0, 765.0, 81.0, 23.0 ],
					"text" : "prepend set"
				}

			}
, 			{
				"box" : 				{
					"color" : [ 0.682352941176471, 0.364705882352941, 0.250980392156863, 1.0 ],
					"id" : "obj-149",
					"maxclass" : "newobj",
					"numinlets" : 1,
					"numoutlets" : 0,
					"patching_rect" : [ 1770.0, 854.605262875556946, 101.0, 23.0 ],
					"text" : "s #0tomira_Y"
				}

			}
, 			{
				"box" : 				{
					"id" : "obj-131",
					"maxclass" : "newobj",
					"numinlets" : 1,
					"numoutlets" : 2,
					"outlettype" : [ "list", "" ],
					"patching_rect" : [ 1770.0, 705.0, 101.0, 23.0 ],
					"text" : "jit.quat2euler"
				}

			}
, 			{
				"box" : 				{
					"color" : [ 0.294117647058824, 0.447058823529412, 0.431372549019608, 1.0 ],
					"id" : "obj-129",
					"maxclass" : "newobj",
					"numinlets" : 0,
					"numoutlets" : 1,
					"outlettype" : [ "" ],
					"patching_rect" : [ 1770.0, 675.0, 74.0, 23.0 ],
					"text" : "r #0quat"
				}

			}
, 			{
				"box" : 				{
					"color" : [ 0.294117647058824, 0.447058823529412, 0.431372549019608, 1.0 ],
					"id" : "obj-128",
					"maxclass" : "newobj",
					"numinlets" : 0,
					"numoutlets" : 1,
					"outlettype" : [ "" ],
					"patching_rect" : [ 645.0, 840.0, 101.0, 23.0 ],
					"text" : "r #0tomira_Y"
				}

			}
, 			{
				"box" : 				{
					"bgcolor" : [ 0.172549019607843, 0.211764705882353, 0.223529411764706, 1.0 ],
					"id" : "obj-123",
					"maxclass" : "comment",
					"numinlets" : 1,
					"numoutlets" : 0,
					"patching_rect" : [ 825.0, 900.0, 30.0, 21.0 ],
					"presentation" : 1,
					"presentation_rect" : [ 45.0, 375.0, 30.0, 21.0 ],
					"text" : "0",
					"textcolor" : [ 0.10196078568697, 0.737254917621613, 0.61176472902298, 1.0 ],
					"textjustification" : 1
				}

			}
, 			{
				"box" : 				{
					"color" : [ 0.341176470588235, 0.282352941176471, 0.32156862745098, 1.0 ],
					"id" : "obj-126",
					"linecount" : 3,
					"maxclass" : "newobj",
					"numinlets" : 2,
					"numoutlets" : 0,
					"patching_rect" : [ 1695.0, 570.0, 165.0, 51.0 ],
					"text" : "GUIforwardBang mira_btn_clearTake recorder::btn_clearTake",
					"varname" : "GUIforward[7]"
				}

			}
, 			{
				"box" : 				{
					"annotation" : "Bang clears the current take (deletes audio items and envelope points)",
					"comment" : "Bang clears the current take (deletes audio items and envelope points)",
					"hint" : "Bang clears the current take (deletes audio items and envelope points)",
					"id" : "obj-124",
					"index" : 5,
					"maxclass" : "inlet",
					"numinlets" : 0,
					"numoutlets" : 1,
					"outlettype" : [ "" ],
					"patching_rect" : [ 285.0, 105.0, 30.0, 30.0 ]
				}

			}
, 			{
				"box" : 				{
					"bgcolor" : [ 1.0, 1.0, 1.0, 0.0 ],
					"fontsize" : 12.0,
					"id" : "obj-144",
					"maxclass" : "comment",
					"numinlets" : 1,
					"numoutlets" : 0,
					"patching_rect" : [ 236.0, 325.0, 30.0, 21.0 ],
					"presentation" : 1,
					"presentation_rect" : [ 270.79888916015625, 298.071624755859375, 45.0, 21.0 ],
					"text" : "x",
					"textcolor" : [ 0.24705882370472, 0.30588236451149, 0.309803932905197, 1.0 ],
					"textjustification" : 1
				}

			}
, 			{
				"box" : 				{
					"bgcolor" : [ 0.247058823529412, 0.305882352941176, 0.309803921568627, 1.0 ],
					"blinkcolor" : [ 0.172549019607843, 0.211764705882353, 0.223529411764706, 1.0 ],
					"id" : "obj-127",
					"maxclass" : "button",
					"numinlets" : 1,
					"numoutlets" : 1,
					"outlettype" : [ "bang" ],
					"outlinecolor" : [ 0.901960784313726, 0.494117647058824, 0.133333333333333, 1.0 ],
					"parameter_enable" : 1,
					"patching_rect" : [ 990.0, 690.0, 15.0, 15.0 ],
					"presentation" : 1,
					"presentation_rect" : [ 285.0, 300.0, 15.0, 15.0 ],
					"saved_attribute_attributes" : 					{
						"valueof" : 						{
							"parameter_enum" : [ "off", "on" ],
							"parameter_type" : 2,
							"parameter_longname" : "button[17]",
							"parameter_mmax" : 1.0,
							"parameter_shortname" : "button[5]"
						}

					}
,
					"varname" : "mira_btn_clearTake"
				}

			}
, 			{
				"box" : 				{
					"id" : "obj-116",
					"maxclass" : "newobj",
					"numinlets" : 1,
					"numoutlets" : 1,
					"outlettype" : [ "" ],
					"patching_rect" : [ 1725.0, 45.0, 74.0, 23.0 ],
					"text" : "loadmess 1"
				}

			}
, 			{
				"box" : 				{
					"bgcolor" : [ 0.341176470588235, 0.282352941176471, 0.32156862745098, 1.0 ],
					"id" : "obj-122",
					"maxclass" : "comment",
					"numinlets" : 1,
					"numoutlets" : 0,
					"patching_rect" : [ 360.0, 660.0, 90.0, 21.0 ],
					"presentation" : 1,
					"presentation_rect" : [ 195.0, 140.0, 60.0, 21.0 ],
					"text" : "Folder",
					"textcolor" : [ 0.780392169952393, 0.482352942228317, 0.345098048448563, 1.0 ]
				}

			}
, 			{
				"box" : 				{
					"bgcolor" : [ 0.341176470588235, 0.282352941176471, 0.32156862745098, 1.0 ],
					"id" : "obj-121",
					"linecount" : 2,
					"maxclass" : "comment",
					"numinlets" : 1,
					"numoutlets" : 0,
					"patching_rect" : [ 360.0, 688.0, 90.0, 35.0 ],
					"presentation" : 1,
					"presentation_rect" : [ 30.0, 140.0, 120.425529479980469, 21.0 ],
					"text" : "Save quaternions",
					"textcolor" : [ 0.780392169952393, 0.482352942228317, 0.345098048448563, 1.0 ]
				}

			}
, 			{
				"box" : 				{
					"bgcolor" : [ 0.2, 0.2, 0.2, 0.0 ],
					"checkedcolor" : [ 0.780392156862745, 0.482352941176471, 0.345098039215686, 1.0 ],
					"id" : "obj-115",
					"maxclass" : "toggle",
					"numinlets" : 1,
					"numoutlets" : 1,
					"outlettype" : [ "int" ],
					"parameter_enable" : 1,
					"patching_rect" : [ 1724.814816296100616, 135.0, 24.0, 24.0 ],
					"presentation" : 1,
					"presentation_rect" : [ 0.0, 138.0, 24.0, 24.0 ],
					"saved_attribute_attributes" : 					{
						"valueof" : 						{
							"parameter_enum" : [ "off", "on" ],
							"parameter_type" : 2,
							"parameter_longname" : "toggle_play",
							"parameter_mmax" : 1.0,
							"parameter_shortname" : "toggle_play"
						}

					}
,
					"uncheckedcolor" : [ 0.294117647058824, 0.447058823529412, 0.431372549019608, 1.0 ],
					"varname" : "toggle_saveQuats"
				}

			}
, 			{
				"box" : 				{
					"id" : "obj-113",
					"maxclass" : "newobj",
					"numinlets" : 2,
					"numoutlets" : 1,
					"outlettype" : [ "" ],
					"patching_rect" : [ 1724.814816296100616, 164.629628658294678, 35.0, 23.0 ],
					"text" : "gate"
				}

			}
, 			{
				"box" : 				{
					"color" : [ 0.823529411764706, 0.788235294117647, 0.647058823529412, 1.0 ],
					"id" : "obj-160",
					"maxclass" : "newobj",
					"numinlets" : 1,
					"numoutlets" : 1,
					"outlettype" : [ "" ],
					"patching_rect" : [ 210.0, 330.0, 55.0, 23.0 ],
					"text" : "pv take"
				}

			}
, 			{
				"box" : 				{
					"color" : [ 0.341176470588235, 0.282352941176471, 0.32156862745098, 1.0 ],
					"id" : "obj-119",
					"maxclass" : "newobj",
					"numinlets" : 1,
					"numoutlets" : 1,
					"outlettype" : [ "" ],
					"patching_rect" : [ 1694.444446921348572, 329.814808428287506, 68.0, 23.0 ],
					"text" : "FileCheck"
				}

			}
, 			{
				"box" : 				{
					"color" : [ 0.823529411764706, 0.788235294117647, 0.647058823529412, 1.0 ],
					"id" : "obj-318",
					"linecount" : 2,
					"maxclass" : "newobj",
					"numinlets" : 1,
					"numoutlets" : 3,
					"outlettype" : [ "", "", "" ],
					"patching_rect" : [ 2100.0, 345.0, 74.0, 37.0 ],
					"restore" : [ "C:/Users/labsticc/Documents/Manips/Gauthier/Directivité/MaxMSP/headRots/" ],
					"saved_object_attributes" : 					{
						"parameter_enable" : 0,
						"parameter_mappable" : 0
					}
,
					"text" : "pattr _ folderName",
					"varname" : "_"
				}

			}
, 			{
				"box" : 				{
					"id" : "obj-316",
					"maxclass" : "newobj",
					"numinlets" : 1,
					"numoutlets" : 1,
					"outlettype" : [ "int" ],
					"patching_rect" : [ 1860.0, 150.0, 28.0, 23.0 ],
					"text" : "t 0"
				}

			}
, 			{
				"box" : 				{
					"id" : "obj-294",
					"maxclass" : "newobj",
					"numinlets" : 1,
					"numoutlets" : 3,
					"outlettype" : [ "int", "clear", "bang" ],
					"patching_rect" : [ 1875.0, 180.0, 81.0, 23.0 ],
					"text" : "t 1 clear b"
				}

			}
, 			{
				"box" : 				{
					"id" : "obj-292",
					"maxclass" : "newobj",
					"numinlets" : 2,
					"numoutlets" : 2,
					"outlettype" : [ "bang", "" ],
					"patching_rect" : [ 1860.0, 120.0, 41.0, 23.0 ],
					"text" : "sel 0"
				}

			}
, 			{
				"box" : 				{
					"color" : [ 0.294117647058824, 0.447058823529412, 0.431372549019608, 1.0 ],
					"id" : "obj-239",
					"maxclass" : "newobj",
					"numinlets" : 0,
					"numoutlets" : 1,
					"outlettype" : [ "" ],
					"patching_rect" : [ 1694.444446921348572, 269.814810395240784, 114.0, 23.0 ],
					"text" : "r #0folderName"
				}

			}
, 			{
				"box" : 				{
					"id" : "obj-240",
					"maxclass" : "newobj",
					"numinlets" : 3,
					"numoutlets" : 2,
					"outlettype" : [ "", "" ],
					"patching_rect" : [ 1694.444446921348572, 298.703698337078094, 272.0, 23.0 ],
					"text" : "combine folderName take .txt @triggers 1"
				}

			}
, 			{
				"box" : 				{
					"color" : [ 0.823529411764706, 0.788235294117647, 0.647058823529412, 1.0 ],
					"id" : "obj-237",
					"maxclass" : "newobj",
					"numinlets" : 1,
					"numoutlets" : 1,
					"outlettype" : [ "" ],
					"patching_rect" : [ 1724.814816296100616, 224.6296266913414, 55.0, 23.0 ],
					"text" : "pv take"
				}

			}
, 			{
				"box" : 				{
					"color" : [ 0.682352941176471, 0.364705882352941, 0.250980392156863, 1.0 ],
					"id" : "obj-235",
					"maxclass" : "newobj",
					"numinlets" : 1,
					"numoutlets" : 0,
					"patching_rect" : [ 2100.0, 390.0, 114.0, 23.0 ],
					"text" : "s #0folderName"
				}

			}
, 			{
				"box" : 				{
					"id" : "obj-140",
					"maxclass" : "newobj",
					"numinlets" : 2,
					"numoutlets" : 1,
					"outlettype" : [ "int" ],
					"patching_rect" : [ 1860.0, 90.0, 29.5, 23.0 ],
					"text" : "& 2"
				}

			}
, 			{
				"box" : 				{
					"id" : "obj-250",
					"maxclass" : "newobj",
					"numinlets" : 1,
					"numoutlets" : 1,
					"outlettype" : [ "" ],
					"patching_rect" : [ 1965.0, 60.0, 61.0, 23.0 ],
					"text" : "append _"
				}

			}
, 			{
				"box" : 				{
					"id" : "obj-148",
					"maxclass" : "newobj",
					"numinlets" : 2,
					"numoutlets" : 2,
					"outlettype" : [ "bang", "" ],
					"patching_rect" : [ 1770.0, 76.0, 41.0, 23.0 ],
					"text" : "sel 0"
				}

			}
, 			{
				"box" : 				{
					"id" : "obj-146",
					"maxclass" : "newobj",
					"numinlets" : 1,
					"numoutlets" : 2,
					"outlettype" : [ "int", "int" ],
					"patching_rect" : [ 1845.0, 60.0, 41.0, 23.0 ],
					"text" : "t i i"
				}

			}
, 			{
				"box" : 				{
					"id" : "obj-138",
					"maxclass" : "newobj",
					"numinlets" : 1,
					"numoutlets" : 1,
					"outlettype" : [ "" ],
					"patching_rect" : [ 1694.444446921348572, 360.185177803039551, 94.0, 23.0 ],
					"text" : "prepend write"
				}

			}
, 			{
				"box" : 				{
					"bgcolor" : [ 0.341176470588235, 0.282352941176471, 0.32156862745098, 1.0 ],
					"blinkcolor" : [ 0.811764705882353, 0.494117647058824, 0.247058823529412, 1.0 ],
					"id" : "obj-133",
					"maxclass" : "button",
					"numinlets" : 1,
					"numoutlets" : 1,
					"outlettype" : [ "bang" ],
					"outlinecolor" : [ 0.811764705882353, 0.494117647058824, 0.247058823529412, 1.0 ],
					"parameter_enable" : 1,
					"patching_rect" : [ 2100.0, 285.0, 24.0, 24.0 ],
					"presentation" : 1,
					"presentation_rect" : [ 165.0, 135.0, 30.0, 30.0 ],
					"saved_attribute_attributes" : 					{
						"valueof" : 						{
							"parameter_enum" : [ "off", "on" ],
							"parameter_type" : 2,
							"parameter_longname" : "button[2]",
							"parameter_mmax" : 1.0,
							"parameter_shortname" : "button[2]"
						}

					}
,
					"varname" : "button[2]"
				}

			}
, 			{
				"box" : 				{
					"id" : "obj-125",
					"maxclass" : "newobj",
					"numinlets" : 1,
					"numoutlets" : 2,
					"outlettype" : [ "", "bang" ],
					"patching_rect" : [ 2100.0, 315.0, 121.0, 23.0 ],
					"text" : "opendialog folder"
				}

			}
, 			{
				"box" : 				{
					"bgcolor" : [ 0.341176470588235, 0.282352941176471, 0.32156862745098, 1.0 ],
					"bordercolor" : [ 0.294117647058824, 0.447058823529412, 0.431372549019608, 1.0 ],
					"id" : "obj-99",
					"linecount" : 6,
					"maxclass" : "textedit",
					"numinlets" : 1,
					"numoutlets" : 4,
					"outlettype" : [ "", "int", "", "" ],
					"parameter_enable" : 0,
					"patching_rect" : [ 2100.0, 195.0, 100.0, 50.0 ],
					"presentation" : 1,
					"presentation_linecount" : 2,
					"presentation_rect" : [ 0.0, 165.0, 285.0, 45.106380462646484 ],
					"rounded" : 0.0,
					"text" : "C:/Users/labsticc/Documents/Manips/Gauthier/Directivité/MaxMSP/headRots/",
					"textcolor" : [ 0.780392156862745, 0.482352941176471, 0.345098039215686, 1.0 ],
					"varname" : "folderName"
				}

			}
, 			{
				"box" : 				{
					"color" : [ 0.823529411764706, 0.788235294117647, 0.647058823529412, 1.0 ],
					"id" : "obj-158",
					"maxclass" : "newobj",
					"numinlets" : 1,
					"numoutlets" : 3,
					"outlettype" : [ "", "bang", "int" ],
					"patching_rect" : [ 1905.0, 390.0, 74.0, 23.0 ],
					"text" : "text takes"
				}

			}
, 			{
				"box" : 				{
					"color" : [ 0.294117647058824, 0.447058823529412, 0.431372549019608, 1.0 ],
					"id" : "obj-137",
					"maxclass" : "newobj",
					"numinlets" : 0,
					"numoutlets" : 1,
					"outlettype" : [ "" ],
					"patching_rect" : [ 1845.0, 30.0, 88.0, 23.0 ],
					"text" : "r #0status"
				}

			}
, 			{
				"box" : 				{
					"id" : "obj-130",
					"maxclass" : "newobj",
					"numinlets" : 2,
					"numoutlets" : 1,
					"outlettype" : [ "" ],
					"patching_rect" : [ 1950.0, 120.0, 35.0, 23.0 ],
					"text" : "gate"
				}

			}
, 			{
				"box" : 				{
					"color" : [ 0.294117647058824, 0.447058823529412, 0.431372549019608, 1.0 ],
					"id" : "obj-102",
					"maxclass" : "newobj",
					"numinlets" : 0,
					"numoutlets" : 1,
					"outlettype" : [ "" ],
					"patching_rect" : [ 1965.0, 30.0, 74.0, 23.0 ],
					"text" : "r #0quat"
				}

			}
, 			{
				"box" : 				{
					"id" : "obj-103",
					"maxclass" : "button",
					"numinlets" : 1,
					"numoutlets" : 1,
					"outlettype" : [ "bang" ],
					"parameter_enable" : 1,
					"patching_rect" : [ 1770.0, 135.0, 24.0, 24.0 ],
					"saved_attribute_attributes" : 					{
						"valueof" : 						{
							"parameter_enum" : [ "off", "on" ],
							"parameter_type" : 2,
							"parameter_longname" : "button[6]",
							"parameter_mmax" : 1.0,
							"parameter_shortname" : "button[1]"
						}

					}
,
					"varname" : "button[1]"
				}

			}
, 			{
				"box" : 				{
					"id" : "obj-106",
					"maxclass" : "newobj",
					"numinlets" : 1,
					"numoutlets" : 3,
					"outlettype" : [ "bang", "zlclear", "bang" ],
					"patching_rect" : [ 1724.814816296100616, 194.999998033046722, 94.0, 23.0 ],
					"text" : "t b zlclear b"
				}

			}
, 			{
				"box" : 				{
					"id" : "obj-101",
					"linecount" : 4,
					"maxclass" : "comment",
					"numinlets" : 1,
					"numoutlets" : 0,
					"patching_rect" : [ 1500.0, 165.0, 154.0, 63.0 ],
					"text" : "pipe: Evite de se mettre en vitesse au moment pile du marqueur",
					"textcolor" : [ 0.341176480054855, 0.282352954149246, 0.321568638086319, 1.0 ]
				}

			}
, 			{
				"box" : 				{
					"id" : "obj-67",
					"maxclass" : "newobj",
					"numinlets" : 2,
					"numoutlets" : 1,
					"outlettype" : [ "" ],
					"patching_rect" : [ 1500.0, 105.0, 61.0, 23.0 ],
					"text" : "pipe 100"
				}

			}
, 			{
				"box" : 				{
					"annotation" : "Status flags (1: play 2: rec)",
					"comment" : "Status flags (1: play 2: rec)",
					"hint" : "Status flags (1: play 2: rec)",
					"id" : "obj-56",
					"index" : 1,
					"maxclass" : "outlet",
					"numinlets" : 1,
					"numoutlets" : 0,
					"patching_rect" : [ 45.0, 285.0, 30.0, 30.0 ]
				}

			}
, 			{
				"box" : 				{
					"bgcolor" : [ 1.0, 1.0, 1.0, 0.0 ],
					"id" : "obj-33",
					"maxclass" : "comment",
					"numinlets" : 1,
					"numoutlets" : 0,
					"patching_rect" : [ 974.756102561950684, 735.487809181213379, 75.0, 21.0 ],
					"presentation" : 1,
					"presentation_rect" : [ 210.0, 360.0, 75.0, 21.0 ],
					"text" : "RESET",
					"textcolor" : [ 0.24705882370472, 0.30588236451149, 0.309803932905197, 1.0 ],
					"textjustification" : 1
				}

			}
, 			{
				"box" : 				{
					"bgcolor" : [ 0.172549019607843, 0.211764705882353, 0.223529411764706, 1.0 ],
					"id" : "obj-36",
					"maxclass" : "number",
					"minimum" : 0,
					"numinlets" : 1,
					"numoutlets" : 2,
					"outlettype" : [ "", "bang" ],
					"parameter_enable" : 1,
					"patching_rect" : [ 990.609761476516724, 659.878051280975342, 75.0, 23.0 ],
					"presentation" : 1,
					"presentation_rect" : [ 225.0, 285.0, 75.0, 23.0 ],
					"saved_attribute_attributes" : 					{
						"valueof" : 						{
							"parameter_type" : 3,
							"parameter_longname" : "number[9]",
							"parameter_invisible" : 1,
							"parameter_shortname" : "number[9]"
						}

					}
,
					"textcolor" : [ 0.901960784313726, 0.494117647058824, 0.133333333333333, 1.0 ],
					"varname" : "mira_take"
				}

			}
, 			{
				"box" : 				{
					"bgcolor" : [ 0.203921568627451, 0.286274509803922, 0.368627450980392, 1.0 ],
					"id" : "obj-114",
					"maxclass" : "comment",
					"numinlets" : 1,
					"numoutlets" : 0,
					"patching_rect" : [ 210.0, 360.0, 90.0, 21.0 ],
					"presentation" : 1,
					"presentation_rect" : [ 225.0, 270.0, 75.0, 21.0 ],
					"text" : "Take",
					"textcolor" : [ 0.945098042488098, 0.768627464771271, 0.058823529630899, 1.0 ]
				}

			}
, 			{
				"box" : 				{
					"bgcolor" : [ 1.0, 1.0, 1.0, 0.0 ],
					"fontsize" : 36.0,
					"id" : "obj-112",
					"maxclass" : "comment",
					"numinlets" : 1,
					"numoutlets" : 0,
					"patching_rect" : [ 608.292697429656982, 381.951228618621826, 117.0, 49.0 ],
					"presentation" : 1,
					"presentation_rect" : [ 325.668426513671875, 434.75933837890625, 40.0, 49.0 ],
					"text" : "⟲",
					"textcolor" : [ 0.24705882370472, 0.30588236451149, 0.309803932905197, 1.0 ],
					"textjustification" : 1
				}

			}
, 			{
				"box" : 				{
					"bgcolor" : [ 0.247058823529412, 0.305882352941176, 0.309803921568627, 1.0 ],
					"blinkcolor" : [ 0.172549019607843, 0.211764705882353, 0.223529411764706, 1.0 ],
					"id" : "obj-57",
					"maxclass" : "button",
					"numinlets" : 1,
					"numoutlets" : 1,
					"outlettype" : [ "bang" ],
					"outlinecolor" : [ 0.901960784313726, 0.494117647058824, 0.133333333333333, 1.0 ],
					"parameter_enable" : 1,
					"patching_rect" : [ 974.756102561950684, 809.878054857254028, 30.0, 30.0 ],
					"presentation" : 1,
					"presentation_rect" : [ 331.463409423828125, 444.268280029296875, 30.0, 30.0 ],
					"saved_attribute_attributes" : 					{
						"valueof" : 						{
							"parameter_enum" : [ "off", "on" ],
							"parameter_type" : 2,
							"parameter_longname" : "button[8]",
							"parameter_mmax" : 1.0,
							"parameter_shortname" : "button[5]"
						}

					}
,
					"varname" : "mira_btn_switchControlMode"
				}

			}
, 			{
				"box" : 				{
					"bgcolor" : [ 0.172549019607843, 0.211764705882353, 0.223529411764706, 1.0 ],
					"bgfillcolor_angle" : 270.0,
					"bgfillcolor_autogradient" : 0.0,
					"bgfillcolor_color" : [ 0.172549019607843, 0.211764705882353, 0.223529411764706, 1.0 ],
					"bgfillcolor_color1" : [ 0.682352941176471, 0.364705882352941, 0.250980392156863, 1.0 ],
					"bgfillcolor_color2" : [ 0.178375545095021, 0.170371067957331, 0.158687279162373, 1.0 ],
					"bgfillcolor_proportion" : 0.5,
					"bgfillcolor_type" : "color",
					"id" : "obj-117",
					"items" : [ "Position", ",", "Speed" ],
					"maxclass" : "umenu",
					"numinlets" : 1,
					"numoutlets" : 3,
					"outlettype" : [ "int", "", "" ],
					"parameter_enable" : 1,
					"patching_rect" : [ 1019.878054857254028, 825.731713771820068, 105.0, 23.0 ],
					"presentation" : 1,
					"presentation_rect" : [ 225.0, 450.0, 105.0, 23.0 ],
					"saved_attribute_attributes" : 					{
						"valueof" : 						{
							"parameter_enum" : [ "Position", "Speed" ],
							"parameter_type" : 2,
							"parameter_longname" : "umenu",
							"parameter_mmax" : 1.0,
							"parameter_shortname" : "umenu"
						}

					}
,
					"textcolor" : [ 0.901960784313726, 0.494117647058824, 0.133333333333333, 1.0 ],
					"varname" : "mira_umenu_mode"
				}

			}
, 			{
				"box" : 				{
					"id" : "obj-111",
					"maxclass" : "newobj",
					"numinlets" : 1,
					"numoutlets" : 1,
					"outlettype" : [ "" ],
					"patching_rect" : [ 1350.0, 885.0, 81.0, 23.0 ],
					"text" : "prepend set"
				}

			}
, 			{
				"box" : 				{
					"id" : "obj-108",
					"linecount" : 2,
					"maxclass" : "newobj",
					"numinlets" : 1,
					"numoutlets" : 3,
					"outlettype" : [ "", "", "" ],
					"patching_rect" : [ 1350.0, 840.0, 165.0, 37.0 ],
					"restore" : [ 0 ],
					"saved_object_attributes" : 					{
						"parameter_enable" : 0,
						"parameter_mappable" : 0
					}
,
					"text" : "pattr _ controller::radbtn_mode",
					"varname" : "_[5]"
				}

			}
, 			{
				"box" : 				{
					"id" : "obj-100",
					"maxclass" : "newobj",
					"numinlets" : 1,
					"numoutlets" : 1,
					"outlettype" : [ "int" ],
					"patching_rect" : [ 480.0, 450.0, 28.0, 23.0 ],
					"text" : "t 0"
				}

			}
, 			{
				"box" : 				{
					"id" : "obj-58",
					"maxclass" : "newobj",
					"numinlets" : 2,
					"numoutlets" : 2,
					"outlettype" : [ "bang", "" ],
					"patching_rect" : [ 480.0, 420.0, 41.0, 23.0 ],
					"text" : "sel 0"
				}

			}
, 			{
				"box" : 				{
					"id" : "obj-6",
					"maxclass" : "newobj",
					"numinlets" : 1,
					"numoutlets" : 2,
					"outlettype" : [ "int", "int" ],
					"patching_rect" : [ 480.0, 360.0, 41.0, 23.0 ],
					"text" : "t i i"
				}

			}
, 			{
				"box" : 				{
					"color" : [ 0.682352941176471, 0.364705882352941, 0.250980392156863, 1.0 ],
					"id" : "obj-77",
					"maxclass" : "newobj",
					"numinlets" : 1,
					"numoutlets" : 0,
					"patching_rect" : [ 390.0, 420.0, 74.0, 23.0 ],
					"text" : "s #0quat"
				}

			}
, 			{
				"box" : 				{
					"bgcolor" : [ 1.0, 1.0, 1.0, 0.0 ],
					"fontsize" : 36.0,
					"id" : "obj-52",
					"maxclass" : "comment",
					"numinlets" : 1,
					"numoutlets" : 0,
					"patching_rect" : [ 1095.0, 690.0, 56.0, 49.0 ],
					"presentation" : 1,
					"presentation_rect" : [ 296.5, 298.5, 84.0, 49.0 ],
					"text" : "-",
					"textcolor" : [ 0.24705882370472, 0.30588236451149, 0.309803932905197, 1.0 ],
					"textjustification" : 1
				}

			}
, 			{
				"box" : 				{
					"bgcolor" : [ 1.0, 1.0, 1.0, 0.0 ],
					"fontsize" : 36.0,
					"id" : "obj-50",
					"maxclass" : "comment",
					"numinlets" : 1,
					"numoutlets" : 0,
					"patching_rect" : [ 1095.0, 645.0, 56.0, 49.0 ],
					"presentation" : 1,
					"presentation_rect" : [ 296.75, 256.25, 84.0, 49.0 ],
					"text" : "+",
					"textcolor" : [ 0.24705882370472, 0.30588236451149, 0.309803932905197, 1.0 ],
					"textjustification" : 1
				}

			}
, 			{
				"box" : 				{
					"bgcolor" : [ 1.0, 1.0, 1.0, 0.0 ],
					"fontsize" : 36.0,
					"id" : "obj-190",
					"maxclass" : "comment",
					"numinlets" : 1,
					"numoutlets" : 0,
					"patching_rect" : [ 26.27118706703186, 351.694923639297485, 117.0, 49.0 ],
					"presentation" : 1,
					"presentation_rect" : [ 137.5, 324.0, 40.0, 49.0 ],
					"text" : "⟲",
					"textcolor" : [ 0.24705882370472, 0.30588236451149, 0.309803932905197, 1.0 ],
					"textjustification" : 1
				}

			}
, 			{
				"box" : 				{
					"bgcolor" : [ 0.247058823529412, 0.305882352941176, 0.309803921568627, 1.0 ],
					"blinkcolor" : [ 0.172549019607843, 0.211764705882353, 0.223529411764706, 1.0 ],
					"id" : "obj-189",
					"maxclass" : "button",
					"numinlets" : 1,
					"numoutlets" : 1,
					"outlettype" : [ "bang" ],
					"outlinecolor" : [ 0.901960784313726, 0.494117647058824, 0.133333333333333, 1.0 ],
					"parameter_enable" : 1,
					"patching_rect" : [ 810.0, 720.0, 30.0, 30.0 ],
					"presentation" : 1,
					"presentation_rect" : [ 143.0, 333.5, 30.0, 30.0 ],
					"saved_attribute_attributes" : 					{
						"valueof" : 						{
							"parameter_enum" : [ "off", "on" ],
							"parameter_type" : 2,
							"parameter_longname" : "button[9]",
							"parameter_mmax" : 1.0,
							"parameter_shortname" : "button[5]"
						}

					}
,
					"varname" : "mira_btn_switchControlMode[1]"
				}

			}
, 			{
				"box" : 				{
					"color" : [ 0.294117647058824, 0.447058823529412, 0.431372549019608, 1.0 ],
					"id" : "obj-188",
					"maxclass" : "newobj",
					"numinlets" : 0,
					"numoutlets" : 1,
					"outlettype" : [ "" ],
					"patching_rect" : [ 1079.83051061630249, 254.661017656326294, 160.0, 23.0 ],
					"text" : "r #0mira_refreshPorts"
				}

			}
, 			{
				"box" : 				{
					"color" : [ 0.682352941176471, 0.364705882352941, 0.250980392156863, 1.0 ],
					"id" : "obj-187",
					"maxclass" : "newobj",
					"numinlets" : 1,
					"numoutlets" : 0,
					"patching_rect" : [ 615.0, 780.0, 160.0, 23.0 ],
					"text" : "s #0mira_refreshPorts"
				}

			}
, 			{
				"box" : 				{
					"color" : [ 0.682352941176471, 0.364705882352941, 0.250980392156863, 1.0 ],
					"id" : "obj-180",
					"maxclass" : "newobj",
					"numinlets" : 1,
					"numoutlets" : 0,
					"patching_rect" : [ 630.0, 749.661017656326294, 134.0, 23.0 ],
					"text" : "s #0frommira_port"
				}

			}
, 			{
				"box" : 				{
					"color" : [ 0.294117647058824, 0.447058823529412, 0.431372549019608, 1.0 ],
					"id" : "obj-179",
					"maxclass" : "newobj",
					"numinlets" : 0,
					"numoutlets" : 1,
					"outlettype" : [ "" ],
					"patching_rect" : [ 630.0, 690.0, 121.0, 23.0 ],
					"text" : "r #0tomira_port"
				}

			}
, 			{
				"box" : 				{
					"id" : "obj-174",
					"maxclass" : "newobj",
					"numinlets" : 1,
					"numoutlets" : 2,
					"outlettype" : [ "print", "clear" ],
					"patching_rect" : [ 1079.83051061630249, 285.169492959976196, 94.0, 23.0 ],
					"text" : "t print clear"
				}

			}
, 			{
				"box" : 				{
					"color" : [ 0.294117647058824, 0.447058823529412, 0.431372549019608, 1.0 ],
					"id" : "obj-173",
					"maxclass" : "newobj",
					"numinlets" : 0,
					"numoutlets" : 1,
					"outlettype" : [ "" ],
					"patching_rect" : [ 1079.83051061630249, 464.830514192581177, 134.0, 23.0 ],
					"text" : "r #0frommira_port"
				}

			}
, 			{
				"box" : 				{
					"color" : [ 0.682352941176471, 0.364705882352941, 0.250980392156863, 1.0 ],
					"id" : "obj-172",
					"maxclass" : "newobj",
					"numinlets" : 1,
					"numoutlets" : 0,
					"patching_rect" : [ 1079.83051061630249, 435.169496536254883, 121.0, 23.0 ],
					"text" : "s #0tomira_port"
				}

			}
, 			{
				"box" : 				{
					"id" : "obj-165",
					"maxclass" : "newobj",
					"numinlets" : 1,
					"numoutlets" : 2,
					"outlettype" : [ "int", "" ],
					"patching_rect" : [ 1079.83051061630249, 314.83051061630249, 48.0, 23.0 ],
					"text" : "serial"
				}

			}
, 			{
				"box" : 				{
					"id" : "obj-166",
					"maxclass" : "newobj",
					"numinlets" : 1,
					"numoutlets" : 1,
					"outlettype" : [ "" ],
					"patching_rect" : [ 1079.83051061630249, 404.66102123260498, 154.0, 23.0 ],
					"text" : "sprintf append port %s"
				}

			}
, 			{
				"box" : 				{
					"id" : "obj-167",
					"maxclass" : "newobj",
					"numinlets" : 2,
					"numoutlets" : 2,
					"outlettype" : [ "", "" ],
					"patching_rect" : [ 1079.83051061630249, 375.000003576278687, 68.0, 23.0 ],
					"text" : "zl.iter 1"
				}

			}
, 			{
				"box" : 				{
					"id" : "obj-168",
					"maxclass" : "newobj",
					"numinlets" : 2,
					"numoutlets" : 2,
					"outlettype" : [ "", "" ],
					"patching_rect" : [ 1079.83051061630249, 344.491528272628784, 74.0, 23.0 ],
					"text" : "route port"
				}

			}
, 			{
				"box" : 				{
					"bgcolor" : [ 0.172549019607843, 0.211764705882353, 0.223529411764706, 1.0 ],
					"bgfillcolor_angle" : 270.0,
					"bgfillcolor_autogradient" : 0.0,
					"bgfillcolor_color" : [ 0.172549019607843, 0.211764705882353, 0.223529411764706, 1.0 ],
					"bgfillcolor_color1" : [ 0.247058823529412, 0.305882352941176, 0.309803921568627, 1.0 ],
					"bgfillcolor_color2" : [ 0.178375545095021, 0.170371067957331, 0.158687279162373, 1.0 ],
					"bgfillcolor_proportion" : 0.5,
					"bgfillcolor_type" : "color",
					"id" : "obj-169",
					"items" : [ "port", "COM4", ",", "port", "COM1" ],
					"maxclass" : "umenu",
					"numinlets" : 1,
					"numoutlets" : 3,
					"outlettype" : [ "int", "", "" ],
					"parameter_enable" : 1,
					"patching_rect" : [ 840.0, 720.0, 100.0, 23.0 ],
					"presentation" : 1,
					"presentation_rect" : [ 31.0, 337.0, 105.0, 23.0 ],
					"saved_attribute_attributes" : 					{
						"valueof" : 						{
							"parameter_enum" : [ "port COM4", "port COM1" ],
							"parameter_type" : 2,
							"parameter_longname" : "umenu[2]",
							"parameter_mmax" : 1.0,
							"parameter_shortname" : "umenu[1]"
						}

					}
,
					"textcolor" : [ 0.901960784313726, 0.494117647058824, 0.133333333333333, 1.0 ],
					"varname" : "mira_umenu_port"
				}

			}
, 			{
				"box" : 				{
					"id" : "obj-170",
					"maxclass" : "newobj",
					"numinlets" : 1,
					"numoutlets" : 1,
					"outlettype" : [ "" ],
					"patching_rect" : [ 990.0, 495.338989496231079, 279.0, 23.0 ],
					"text" : "pattrforward controller::t3Import::serial",
					"varname" : "_[4]"
				}

			}
, 			{
				"box" : 				{
					"id" : "obj-51",
					"maxclass" : "toggle",
					"numinlets" : 1,
					"numoutlets" : 1,
					"outlettype" : [ "int" ],
					"parameter_enable" : 1,
					"patching_rect" : [ 974.756102561950684, 855.000007152557373, 24.0, 24.0 ],
					"saved_attribute_attributes" : 					{
						"valueof" : 						{
							"parameter_enum" : [ "off", "on" ],
							"parameter_type" : 2,
							"parameter_longname" : "toggle",
							"parameter_mmax" : 1.0,
							"parameter_shortname" : "toggle"
						}

					}
,
					"varname" : "toggle"
				}

			}
, 			{
				"box" : 				{
					"id" : "obj-37",
					"maxclass" : "newobj",
					"numinlets" : 2,
					"numoutlets" : 2,
					"outlettype" : [ "bang", "" ],
					"patching_rect" : [ 1065.0, 105.0, 41.0, 23.0 ],
					"text" : "sel 0"
				}

			}
, 			{
				"box" : 				{
					"id" : "obj-40",
					"maxclass" : "newobj",
					"numinlets" : 2,
					"numoutlets" : 1,
					"outlettype" : [ "int" ],
					"patching_rect" : [ 1065.0, 75.0, 29.5, 23.0 ],
					"text" : "& 2"
				}

			}
, 			{
				"box" : 				{
					"id" : "obj-45",
					"maxclass" : "newobj",
					"numinlets" : 2,
					"numoutlets" : 2,
					"outlettype" : [ "bang", "" ],
					"patching_rect" : [ 1005.0, 75.0, 41.0, 23.0 ],
					"text" : "sel 0"
				}

			}
, 			{
				"box" : 				{
					"id" : "obj-46",
					"maxclass" : "newobj",
					"numinlets" : 1,
					"numoutlets" : 2,
					"outlettype" : [ "int", "bang" ],
					"patching_rect" : [ 1065.0, 135.0, 41.0, 23.0 ],
					"text" : "t 1 b"
				}

			}
, 			{
				"box" : 				{
					"id" : "obj-48",
					"maxclass" : "newobj",
					"numinlets" : 1,
					"numoutlets" : 1,
					"outlettype" : [ "int" ],
					"patching_rect" : [ 1005.0, 135.0, 28.0, 23.0 ],
					"text" : "t 0"
				}

			}
, 			{
				"box" : 				{
					"color" : [ 0.294117647058824, 0.447058823529412, 0.431372549019608, 1.0 ],
					"id" : "obj-44",
					"maxclass" : "newobj",
					"numinlets" : 0,
					"numoutlets" : 1,
					"outlettype" : [ "" ],
					"patching_rect" : [ 510.0, 90.0, 121.0, 23.0 ],
					"text" : "r #0controlMode"
				}

			}
, 			{
				"box" : 				{
					"color" : [ 0.341176470588235, 0.282352941176471, 0.32156862745098, 1.0 ],
					"id" : "obj-35",
					"linecount" : 2,
					"maxclass" : "newobj",
					"numinlets" : 2,
					"numoutlets" : 0,
					"patching_rect" : [ 1155.243911743164063, 840.365860462188721, 195.0, 37.0 ],
					"text" : "GUIforward mira_umenu_mode controller::radbtn_mode",
					"varname" : "GUIforward[6]"
				}

			}
, 			{
				"box" : 				{
					"color" : [ 0.341176470588235, 0.282352941176471, 0.32156862745098, 1.0 ],
					"id" : "obj-34",
					"linecount" : 2,
					"maxclass" : "newobj",
					"numinlets" : 2,
					"numoutlets" : 0,
					"patching_rect" : [ 1155.243911743164063, 795.243908166885376, 210.0, 37.0 ],
					"text" : "GUIforwardBang mira_btn_reset controller::btn_reset",
					"varname" : "GUIforward[5]"
				}

			}
, 			{
				"box" : 				{
					"id" : "obj-105",
					"maxclass" : "newobj",
					"numinlets" : 2,
					"numoutlets" : 2,
					"outlettype" : [ "bang", "" ],
					"patching_rect" : [ 1530.853676795959473, 615.975611209869385, 41.0, 23.0 ],
					"text" : "sel 1"
				}

			}
, 			{
				"box" : 				{
					"id" : "obj-104",
					"maxclass" : "newobj",
					"numinlets" : 2,
					"numoutlets" : 2,
					"outlettype" : [ "bang", "" ],
					"patching_rect" : [ 1380.853673219680786, 615.975611209869385, 41.0, 23.0 ],
					"text" : "sel 1"
				}

			}
, 			{
				"box" : 				{
					"id" : "obj-84",
					"linecount" : 2,
					"maxclass" : "newobj",
					"numinlets" : 1,
					"numoutlets" : 3,
					"outlettype" : [ "", "", "" ],
					"patching_rect" : [ 1380.853673219680786, 569.634146690368652, 135.0, 37.0 ],
					"restore" : [ 0.0 ],
					"saved_object_attributes" : 					{
						"parameter_enable" : 0,
						"parameter_mappable" : 0
					}
,
					"text" : "pattr _ mira_btn_takeDown",
					"varname" : "_[3]"
				}

			}
, 			{
				"box" : 				{
					"id" : "obj-65",
					"linecount" : 2,
					"maxclass" : "newobj",
					"numinlets" : 1,
					"numoutlets" : 3,
					"outlettype" : [ "", "", "" ],
					"patching_rect" : [ 1530.853676795959473, 569.634146690368652, 120.0, 37.0 ],
					"restore" : [ 0.0 ],
					"saved_object_attributes" : 					{
						"parameter_enable" : 0,
						"parameter_mappable" : 0
					}
,
					"text" : "pattr _ mira_btn_takeUp",
					"varname" : "_[2]"
				}

			}
, 			{
				"box" : 				{
					"id" : "obj-60",
					"maxclass" : "newobj",
					"numinlets" : 1,
					"numoutlets" : 3,
					"outlettype" : [ "", "", "" ],
					"patching_rect" : [ 1471.097577810287476, 705.000003576278687, 121.0, 23.0 ],
					"restore" : [ 1 ],
					"saved_object_attributes" : 					{
						"parameter_enable" : 0,
						"parameter_mappable" : 0
					}
,
					"text" : "pattr _ mira_take",
					"varname" : "_[1]"
				}

			}
, 			{
				"box" : 				{
					"id" : "obj-55",
					"maxclass" : "newobj",
					"numinlets" : 2,
					"numoutlets" : 2,
					"outlettype" : [ "int", "int" ],
					"patching_rect" : [ 1380.853673219680786, 705.000003576278687, 68.0, 23.0 ],
					"text" : "maximum 0"
				}

			}
, 			{
				"box" : 				{
					"bgcolor" : [ 0.203921568627451, 0.286274509803922, 0.368627450980392, 1.0 ],
					"id" : "obj-25",
					"maxclass" : "comment",
					"numinlets" : 1,
					"numoutlets" : 0,
					"patching_rect" : [ 1035.731713771820068, 795.243908166885376, 90.0, 21.0 ],
					"presentation" : 1,
					"presentation_rect" : [ 225.0, 435.0, 134.756103515625, 21.0 ],
					"text" : "Control Mode",
					"textcolor" : [ 0.945098042488098, 0.768627464771271, 0.058823529630899, 1.0 ]
				}

			}
, 			{
				"box" : 				{
					"bgcolor" : [ 1.0, 1.0, 1.0, 0.0 ],
					"id" : "obj-19",
					"maxclass" : "comment",
					"numinlets" : 1,
					"numoutlets" : 0,
					"patching_rect" : [ 869.878051280975342, 675.731710195541382, 75.0, 21.0 ],
					"presentation" : 1,
					"presentation_rect" : [ 105.0, 300.0, 75.0, 21.0 ],
					"text" : "REC",
					"textcolor" : [ 0.24705882370472, 0.30588236451149, 0.309803932905197, 1.0 ],
					"textjustification" : 1
				}

			}
, 			{
				"box" : 				{
					"bgcolor" : [ 1.0, 1.0, 1.0, 0.0 ],
					"id" : "obj-13",
					"maxclass" : "comment",
					"numinlets" : 1,
					"numoutlets" : 0,
					"patching_rect" : [ 795.487805604934692, 675.731710195541382, 75.0, 21.0 ],
					"presentation" : 1,
					"presentation_rect" : [ 30.0, 300.0, 75.0, 21.0 ],
					"text" : "PLAY",
					"textcolor" : [ 0.24705882370472, 0.30588236451149, 0.309803932905197, 1.0 ],
					"textjustification" : 1
				}

			}
, 			{
				"box" : 				{
					"color" : [ 0.341176470588235, 0.282352941176471, 0.32156862745098, 1.0 ],
					"id" : "obj-93",
					"linecount" : 2,
					"maxclass" : "newobj",
					"numinlets" : 2,
					"numoutlets" : 0,
					"patching_rect" : [ 1155.243911743164063, 750.121955871582031, 147.0, 37.0 ],
					"text" : "GUIforward mira_take recorder::num_take",
					"varname" : "GUIforward[4]"
				}

			}
, 			{
				"box" : 				{
					"color" : [ 0.341176470588235, 0.282352941176471, 0.32156862745098, 1.0 ],
					"id" : "obj-92",
					"linecount" : 2,
					"maxclass" : "newobj",
					"numinlets" : 2,
					"numoutlets" : 0,
					"patching_rect" : [ 1155.243911743164063, 569.634146690368652, 187.0, 37.0 ],
					"text" : "GUIforward mira_toggle_rec recorder::toggle_rec",
					"varname" : "GUIforward[3]"
				}

			}
, 			{
				"box" : 				{
					"color" : [ 0.341176470588235, 0.282352941176471, 0.32156862745098, 1.0 ],
					"id" : "obj-87",
					"linecount" : 2,
					"maxclass" : "newobj",
					"numinlets" : 2,
					"numoutlets" : 0,
					"patching_rect" : [ 1155.243911743164063, 614.756098985671997, 195.0, 37.0 ],
					"text" : "GUIforward mira_toggle_play recorder::toggle_play",
					"varname" : "GUIforward[2]"
				}

			}
, 			{
				"box" : 				{
					"color" : [ 0.341176470588235, 0.282352941176471, 0.32156862745098, 1.0 ],
					"id" : "obj-86",
					"linecount" : 2,
					"maxclass" : "newobj",
					"numinlets" : 2,
					"numoutlets" : 0,
					"patching_rect" : [ 1155.243911743164063, 705.000003576278687, 180.0, 37.0 ],
					"text" : "GUIforward mira_toggle_to controller::toggle_to",
					"varname" : "GUIforward[1]"
				}

			}
, 			{
				"box" : 				{
					"color" : [ 0.341176470588235, 0.282352941176471, 0.32156862745098, 1.0 ],
					"id" : "obj-59",
					"linecount" : 2,
					"maxclass" : "newobj",
					"numinlets" : 2,
					"numoutlets" : 0,
					"patching_rect" : [ 1155.243911743164063, 659.878051280975342, 195.0, 37.0 ],
					"text" : "GUIforward mira_toggle_from controller::toggle_from",
					"varname" : "GUIforward"
				}

			}
, 			{
				"box" : 				{
					"color" : [ 0.294117647058824, 0.447058823529412, 0.431372549019608, 1.0 ],
					"id" : "obj-182",
					"maxclass" : "newobj",
					"numinlets" : 0,
					"numoutlets" : 1,
					"outlettype" : [ "" ],
					"patching_rect" : [ 435.0, 15.0, 88.0, 23.0 ],
					"text" : "r #0UDPOut"
				}

			}
, 			{
				"box" : 				{
					"id" : "obj-91",
					"maxclass" : "newobj",
					"numinlets" : 1,
					"numoutlets" : 1,
					"outlettype" : [ "int" ],
					"patching_rect" : [ 1380.853673219680786, 645.243904590606689, 35.0, 23.0 ],
					"text" : "t -1"
				}

			}
, 			{
				"box" : 				{
					"id" : "obj-90",
					"maxclass" : "newobj",
					"numinlets" : 1,
					"numoutlets" : 1,
					"outlettype" : [ "int" ],
					"patching_rect" : [ 1530.853676795959473, 645.243904590606689, 28.0, 23.0 ],
					"text" : "t 1"
				}

			}
, 			{
				"box" : 				{
					"id" : "obj-88",
					"maxclass" : "newobj",
					"numinlets" : 1,
					"numoutlets" : 2,
					"outlettype" : [ "int", "int" ],
					"patching_rect" : [ 1380.853673219680786, 735.487809181213379, 41.0, 23.0 ],
					"text" : "t i i"
				}

			}
, 			{
				"box" : 				{
					"id" : "obj-89",
					"maxclass" : "newobj",
					"numinlets" : 2,
					"numoutlets" : 1,
					"outlettype" : [ "int" ],
					"patching_rect" : [ 1380.853673219680786, 674.512197971343994, 29.5, 23.0 ],
					"text" : "+"
				}

			}
, 			{
				"box" : 				{
					"bgcolor" : [ 0.247058823529412, 0.305882352941176, 0.309803921568627, 1.0 ],
					"blinkcolor" : [ 0.172549019607843, 0.211764705882353, 0.223529411764706, 1.0 ],
					"id" : "obj-49",
					"maxclass" : "button",
					"numinlets" : 1,
					"numoutlets" : 1,
					"outlettype" : [ "bang" ],
					"outlinecolor" : [ 0.901960784313726, 0.494117647058824, 0.133333333333333, 1.0 ],
					"parameter_enable" : 1,
					"patching_rect" : [ 1080.853666067123413, 630.609757900238037, 44.736842393875122, 44.736842393875122 ],
					"presentation" : 1,
					"presentation_rect" : [ 315.0, 255.0, 44.736843109130859, 44.736843109130859 ],
					"saved_attribute_attributes" : 					{
						"valueof" : 						{
							"parameter_enum" : [ "off", "on" ],
							"parameter_type" : 2,
							"parameter_longname" : "button[4]",
							"parameter_mmax" : 1.0,
							"parameter_shortname" : "button[4]"
						}

					}
,
					"varname" : "mira_btn_takeUp"
				}

			}
, 			{
				"box" : 				{
					"bgcolor" : [ 0.247058823529412, 0.305882352941176, 0.309803921568627, 1.0 ],
					"blinkcolor" : [ 0.172549019607843, 0.211764705882353, 0.223529411764706, 1.0 ],
					"id" : "obj-47",
					"maxclass" : "button",
					"numinlets" : 1,
					"numoutlets" : 1,
					"outlettype" : [ "bang" ],
					"outlinecolor" : [ 0.901960784313726, 0.494117647058824, 0.133333333333333, 1.0 ],
					"parameter_enable" : 1,
					"patching_rect" : [ 1080.853666067123413, 675.731710195541382, 44.736842393875122, 44.736842393875122 ],
					"presentation" : 1,
					"presentation_rect" : [ 315.0, 300.0, 44.736843109130859, 44.736843109130859 ],
					"saved_attribute_attributes" : 					{
						"valueof" : 						{
							"parameter_enum" : [ "off", "on" ],
							"parameter_type" : 2,
							"parameter_longname" : "button[5]",
							"parameter_mmax" : 1.0,
							"parameter_shortname" : "button[5]"
						}

					}
,
					"varname" : "mira_btn_takeDown"
				}

			}
, 			{
				"box" : 				{
					"bgcolor" : [ 0.905882352941176, 0.298039215686275, 0.235294117647059, 1.0 ],
					"checkedcolor" : [ 0.823529411764706, 0.788235294117647, 0.647058823529412, 1.0 ],
					"id" : "obj-31",
					"maxclass" : "toggle",
					"numinlets" : 1,
					"numoutlets" : 1,
					"outlettype" : [ "int" ],
					"parameter_enable" : 1,
					"patching_rect" : [ 869.878051280975342, 614.756098985671997, 75.0, 75.0 ],
					"presentation" : 1,
					"presentation_rect" : [ 105.0, 240.0, 75.0, 75.0 ],
					"saved_attribute_attributes" : 					{
						"valueof" : 						{
							"parameter_enum" : [ "off", "on" ],
							"parameter_type" : 2,
							"parameter_longname" : "toggle[3]",
							"parameter_mmax" : 1.0,
							"parameter_shortname" : "toggle[2]"
						}

					}
,
					"varname" : "mira_toggle_rec"
				}

			}
, 			{
				"box" : 				{
					"bgcolor" : [ 0.180392156862745, 0.8, 0.443137254901961, 1.0 ],
					"checkedcolor" : [ 0.823529411764706, 0.788235294117647, 0.647058823529412, 1.0 ],
					"id" : "obj-12",
					"maxclass" : "toggle",
					"numinlets" : 1,
					"numoutlets" : 1,
					"outlettype" : [ "int" ],
					"parameter_enable" : 1,
					"patching_rect" : [ 795.487805604934692, 614.756098985671997, 75.0, 75.0 ],
					"presentation" : 1,
					"presentation_rect" : [ 30.0, 240.0, 75.0, 75.0 ],
					"saved_attribute_attributes" : 					{
						"valueof" : 						{
							"parameter_enum" : [ "off", "on" ],
							"parameter_type" : 2,
							"parameter_longname" : "toggle[2]",
							"parameter_mmax" : 1.0,
							"parameter_shortname" : "toggle[2]"
						}

					}
,
					"varname" : "mira_toggle_play"
				}

			}
, 			{
				"box" : 				{
					"id" : "obj-79",
					"maxclass" : "newobj",
					"numinlets" : 2,
					"numoutlets" : 1,
					"outlettype" : [ "int" ],
					"patching_rect" : [ 1500.0, 75.0, 35.0, 23.0 ],
					"text" : "!= 0"
				}

			}
, 			{
				"box" : 				{
					"color" : [ 0.682352941176471, 0.364705882352941, 0.250980392156863, 1.0 ],
					"id" : "obj-80",
					"maxclass" : "newobj",
					"numinlets" : 1,
					"numoutlets" : 0,
					"patching_rect" : [ 1500.0, 135.0, 121.0, 23.0 ],
					"text" : "s #0controlMode"
				}

			}
, 			{
				"box" : 				{
					"color" : [ 0.294117647058824, 0.447058823529412, 0.431372549019608, 1.0 ],
					"id" : "obj-81",
					"maxclass" : "newobj",
					"numinlets" : 0,
					"numoutlets" : 1,
					"outlettype" : [ "" ],
					"patching_rect" : [ 1500.0, 45.0, 154.0, 23.0 ],
					"text" : "r #0controlModeCheck"
				}

			}
, 			{
				"box" : 				{
					"color" : [ 0.682352941176471, 0.364705882352941, 0.250980392156863, 1.0 ],
					"id" : "obj-76",
					"maxclass" : "newobj",
					"numinlets" : 1,
					"numoutlets" : 0,
					"patching_rect" : [ 780.0, 135.0, 114.0, 23.0 ],
					"text" : "s #0inputCheck"
				}

			}
, 			{
				"box" : 				{
					"color" : [ 0.682352941176471, 0.364705882352941, 0.250980392156863, 1.0 ],
					"id" : "obj-69",
					"maxclass" : "newobj",
					"numinlets" : 1,
					"numoutlets" : 0,
					"patching_rect" : [ 1305.0, 180.0, 81.0, 23.0 ],
					"text" : "s #0UDPIn"
				}

			}
, 			{
				"box" : 				{
					"color" : [ 0.294117647058824, 0.447058823529412, 0.431372549019608, 1.0 ],
					"id" : "obj-70",
					"maxclass" : "newobj",
					"numinlets" : 0,
					"numoutlets" : 1,
					"outlettype" : [ "" ],
					"patching_rect" : [ 1305.0, 45.0, 114.0, 23.0 ],
					"text" : "r #0inputCheck"
				}

			}
, 			{
				"box" : 				{
					"color" : [ 0.294117647058824, 0.447058823529412, 0.431372549019608, 1.0 ],
					"id" : "obj-66",
					"maxclass" : "newobj",
					"numinlets" : 0,
					"numoutlets" : 1,
					"outlettype" : [ "" ],
					"patching_rect" : [ 345.0, 15.0, 81.0, 23.0 ],
					"text" : "r #0UDPIn"
				}

			}
, 			{
				"box" : 				{
					"color" : [ 0.682352941176471, 0.364705882352941, 0.250980392156863, 1.0 ],
					"id" : "obj-54",
					"maxclass" : "newobj",
					"numinlets" : 1,
					"numoutlets" : 0,
					"patching_rect" : [ 1005.0, 180.0, 88.0, 23.0 ],
					"text" : "s #0UDPOut"
				}

			}
, 			{
				"box" : 				{
					"color" : [ 0.294117647058824, 0.447058823529412, 0.431372549019608, 1.0 ],
					"id" : "obj-62",
					"maxclass" : "newobj",
					"numinlets" : 0,
					"numoutlets" : 1,
					"outlettype" : [ "" ],
					"patching_rect" : [ 1005.032680213451385, 45.065360426902771, 121.0, 23.0 ],
					"text" : "r #0outputCheck"
				}

			}
, 			{
				"box" : 				{
					"color" : [ 0.294117647058824, 0.447058823529412, 0.431372549019608, 1.0 ],
					"id" : "obj-43",
					"maxclass" : "newobj",
					"numinlets" : 0,
					"numoutlets" : 1,
					"outlettype" : [ "" ],
					"patching_rect" : [ 780.0, 240.0, 94.0, 23.0 ],
					"text" : "r #0UDPSend"
				}

			}
, 			{
				"box" : 				{
					"color" : [ 0.294117647058824, 0.447058823529412, 0.431372549019608, 1.0 ],
					"id" : "obj-39",
					"maxclass" : "newobj",
					"numinlets" : 0,
					"numoutlets" : 1,
					"outlettype" : [ "" ],
					"patching_rect" : [ 870.0, 270.0, 95.0, 23.0 ],
					"text" : "r #0UDPPort"
				}

			}
, 			{
				"box" : 				{
					"id" : "obj-38",
					"maxclass" : "newobj",
					"numinlets" : 1,
					"numoutlets" : 0,
					"patching_rect" : [ 780.0, 300.0, 134.0, 23.0 ],
					"text" : "udpsend localhost 0"
				}

			}
, 			{
				"box" : 				{
					"color" : [ 0.682352941176471, 0.364705882352941, 0.250980392156863, 1.0 ],
					"id" : "obj-32",
					"maxclass" : "newobj",
					"numinlets" : 1,
					"numoutlets" : 0,
					"patching_rect" : [ 780.0, 105.0, 121.0, 23.0 ],
					"text" : "s #0outputCheck"
				}

			}
, 			{
				"box" : 				{
					"color" : [ 0.682352941176471, 0.364705882352941, 0.250980392156863, 1.0 ],
					"id" : "obj-30",
					"maxclass" : "newobj",
					"numinlets" : 1,
					"numoutlets" : 0,
					"patching_rect" : [ 780.0, 165.0, 154.0, 23.0 ],
					"text" : "s #0controlModeCheck"
				}

			}
, 			{
				"box" : 				{
					"id" : "obj-28",
					"maxclass" : "newobj",
					"numinlets" : 1,
					"numoutlets" : 3,
					"outlettype" : [ "int", "int", "int" ],
					"patching_rect" : [ 780.0, 75.0, 55.0, 23.0 ],
					"text" : "t i i i"
				}

			}
, 			{
				"box" : 				{
					"color" : [ 0.294117647058824, 0.447058823529412, 0.431372549019608, 1.0 ],
					"id" : "obj-27",
					"maxclass" : "newobj",
					"numinlets" : 0,
					"numoutlets" : 1,
					"outlettype" : [ "" ],
					"patching_rect" : [ 780.0, 45.0, 88.0, 23.0 ],
					"text" : "r #0status"
				}

			}
, 			{
				"box" : 				{
					"color" : [ 0.682352941176471, 0.364705882352941, 0.250980392156863, 1.0 ],
					"id" : "obj-24",
					"maxclass" : "newobj",
					"numinlets" : 1,
					"numoutlets" : 0,
					"patching_rect" : [ 90.0, 285.0, 88.0, 23.0 ],
					"text" : "s #0status"
				}

			}
, 			{
				"box" : 				{
					"annotation" : "Toggle YPR output",
					"comment" : "Toggle YPR output",
					"hint" : "Toggle YPR output",
					"id" : "obj-26",
					"index" : 7,
					"maxclass" : "inlet",
					"numinlets" : 0,
					"numoutlets" : 1,
					"outlettype" : [ "" ],
					"patching_rect" : [ 434.919776022434235, 74.598932683467865, 30.0, 30.0 ]
				}

			}
, 			{
				"box" : 				{
					"annotation" : "Control mode (0 : position ; 1 : speed)",
					"comment" : "Control mode (0 : position ; 1 : speed)",
					"hint" : "Control mode (0 : position ; 1 : speed)",
					"id" : "obj-15",
					"index" : 8,
					"maxclass" : "inlet",
					"numinlets" : 0,
					"numoutlets" : 1,
					"outlettype" : [ "" ],
					"patching_rect" : [ 480.0, 60.0, 30.0, 30.0 ]
				}

			}
, 			{
				"box" : 				{
					"annotation" : "Take index",
					"comment" : "Take index",
					"hint" : "Take index",
					"id" : "obj-14",
					"index" : 2,
					"maxclass" : "outlet",
					"numinlets" : 1,
					"numoutlets" : 0,
					"patching_rect" : [ 210.0, 285.0, 30.0, 30.0 ]
				}

			}
, 			{
				"box" : 				{
					"color" : [ 0.294117647058824, 0.447058823529412, 0.431372549019608, 1.0 ],
					"id" : "obj-9",
					"maxclass" : "newobj",
					"numinlets" : 0,
					"numoutlets" : 1,
					"outlettype" : [ "" ],
					"patching_rect" : [ 30.106953620910645, 74.598932683467865, 95.0, 23.0 ],
					"text" : "r #0UDPPort"
				}

			}
, 			{
				"box" : 				{
					"color" : [ 0.294117647058824, 0.447058823529412, 0.431372549019608, 1.0 ],
					"id" : "obj-7",
					"maxclass" : "newobj",
					"numinlets" : 0,
					"numoutlets" : 1,
					"outlettype" : [ "" ],
					"patching_rect" : [ 330.106944859027863, 44.652409493923187, 95.0, 23.0 ],
					"text" : "r #0UDPPort"
				}

			}
, 			{
				"box" : 				{
					"color" : [ 0.682352941176471, 0.364705882352941, 0.250980392156863, 1.0 ],
					"id" : "obj-5",
					"maxclass" : "newobj",
					"numinlets" : 1,
					"numoutlets" : 0,
					"patching_rect" : [ 555.0, 360.0, 95.0, 23.0 ],
					"text" : "s #0UDPPort"
				}

			}
, 			{
				"box" : 				{
					"color" : [ 0.682352941176471, 0.364705882352941, 0.250980392156863, 1.0 ],
					"id" : "obj-4",
					"maxclass" : "newobj",
					"numinlets" : 1,
					"numoutlets" : 0,
					"patching_rect" : [ 285.0, 285.0, 95.0, 23.0 ],
					"text" : "s #0UDPPort"
				}

			}
, 			{
				"box" : 				{
					"annotation" : "T3 orientation (Quaternion)",
					"comment" : "T3 orientation (Quaternion)",
					"hint" : "T3 orientation (Quaternion)",
					"id" : "obj-22",
					"index" : 3,
					"maxclass" : "outlet",
					"numinlets" : 1,
					"numoutlets" : 0,
					"patching_rect" : [ 390.0, 360.0, 30.0, 30.0 ]
				}

			}
, 			{
				"box" : 				{
					"annotation" : "Toggle if controlling",
					"comment" : "Toggle if controlling",
					"hint" : "Toggle if controlling",
					"id" : "obj-18",
					"index" : 4,
					"maxclass" : "outlet",
					"numinlets" : 1,
					"numoutlets" : 0,
					"patching_rect" : [ 510.0, 390.0, 30.0, 30.0 ]
				}

			}
, 			{
				"box" : 				{
					"annotation" : "bang for T3 offset reset",
					"comment" : "bang for T3 offset reset",
					"hint" : "bang for T3 offset reset",
					"id" : "obj-17",
					"index" : 9,
					"maxclass" : "inlet",
					"numinlets" : 0,
					"numoutlets" : 1,
					"outlettype" : [ "" ],
					"patching_rect" : [ 540.0, 45.0, 30.0, 30.0 ]
				}

			}
, 			{
				"box" : 				{
					"annotation" : "Toggle YPR input\n",
					"comment" : "Toggle YPR input",
					"hint" : "Toggle YPR input",
					"id" : "obj-16",
					"index" : 6,
					"maxclass" : "inlet",
					"numinlets" : 0,
					"numoutlets" : 1,
					"outlettype" : [ "" ],
					"patching_rect" : [ 389.999991238117218, 74.598932683467865, 30.0, 30.0 ]
				}

			}
, 			{
				"box" : 				{
					"annotation" : "Time between each take (s)",
					"comment" : "Time between each take (s)",
					"hint" : "Time between each take (s)",
					"id" : "obj-78",
					"index" : 3,
					"maxclass" : "inlet",
					"numinlets" : 0,
					"numoutlets" : 1,
					"outlettype" : [ "" ],
					"patching_rect" : [ 180.374328911304474, 104.545455873012543, 30.0, 30.0 ]
				}

			}
, 			{
				"box" : 				{
					"annotation" : "Create a new take (marker i in Reaper) and moves cursor to it",
					"comment" : "Create a new take (marker i in Reaper) and moves cursor to it",
					"hint" : "Create a new take (marker i in Reaper) and moves cursor to it",
					"id" : "obj-75",
					"index" : 4,
					"maxclass" : "inlet",
					"numinlets" : 0,
					"numoutlets" : 1,
					"outlettype" : [ "" ],
					"patching_rect" : [ 225.29411369562149, 104.545455873012543, 30.0, 30.0 ]
				}

			}
, 			{
				"box" : 				{
					"annotation" : "Toggle rec",
					"comment" : "Toggle rec",
					"hint" : "Toggle rec",
					"id" : "obj-74",
					"index" : 2,
					"maxclass" : "inlet",
					"numinlets" : 0,
					"numoutlets" : 1,
					"outlettype" : [ "" ],
					"patching_rect" : [ 134.919784784317017, 104.545455873012543, 30.0, 30.0 ]
				}

			}
, 			{
				"box" : 				{
					"annotation" : "Toggle play. port i sets udpsend port to i",
					"comment" : "Toggle play. port i sets udpsend port to i",
					"hint" : "Toggle play. port i sets udpsend port to i",
					"id" : "obj-73",
					"index" : 1,
					"maxclass" : "inlet",
					"numinlets" : 0,
					"numoutlets" : 1,
					"outlettype" : [ "" ],
					"patching_rect" : [ 90.0, 104.545455873012543, 30.0, 30.0 ]
				}

			}
, 			{
				"box" : 				{
					"id" : "obj-1",
					"maxclass" : "newobj",
					"numinlets" : 1,
					"numoutlets" : 0,
					"patching_rect" : [ 675.163420021533966, 0.0, 74.0, 23.0 ],
					"saved_object_attributes" : 					{
						"allwindowsactive" : 1,
						"appicon_mac" : "",
						"appicon_win" : "",
						"audiosupport" : 1,
						"bundleidentifier" : "com.mycompany.myprogram",
						"cantclosetoplevelpatchers" : 1,
						"cefsupport" : 1,
						"copysupport" : 1,
						"database" : 1,
						"extensions" : 1,
						"gensupport" : 1,
						"midisupport" : 1,
						"noloadbangdefeating" : 1,
						"overdrive" : 1,
						"preffilename" : "Max 8 Preferences",
						"searchformissingfiles" : 1,
						"statusvisible" : 1,
						"usesearchpath" : 1
					}
,
					"text" : "standalone"
				}

			}
, 			{
				"box" : 				{
					"bgmode" : 0,
					"border" : 0,
					"clickthrough" : 0,
					"enablehscroll" : 0,
					"enablevscroll" : 0,
					"id" : "obj-3",
					"lockeddragscroll" : 0,
					"maxclass" : "bpatcher",
					"name" : "ReaperRecorder.maxpat",
					"numinlets" : 7,
					"numoutlets" : 3,
					"offset" : [ 0.0, 0.0 ],
					"outlettype" : [ "int", "", "" ],
					"patching_rect" : [ 90.0, 150.0, 285.0, 120.0 ],
					"presentation" : 1,
					"presentation_rect" : [ 0.0, 0.0, 285.0, 120.0 ],
					"varname" : "recorder",
					"viewvisibility" : 1
				}

			}
, 			{
				"box" : 				{
					"bgmode" : 0,
					"border" : 0,
					"clickthrough" : 0,
					"enablehscroll" : 0,
					"enablevscroll" : 0,
					"id" : "obj-2",
					"lockeddragscroll" : 0,
					"maxclass" : "bpatcher",
					"name" : "YPR_UDP.maxpat",
					"numinlets" : 4,
					"numoutlets" : 5,
					"offset" : [ 0.0, 0.0 ],
					"outlettype" : [ "", "int", "", "int", "" ],
					"patching_rect" : [ 390.0, 120.0, 165.000008761882782, 225.481282532215118 ],
					"presentation" : 1,
					"presentation_rect" : [ 285.0, 0.0, 180.0, 225.0 ],
					"varname" : "controller",
					"viewvisibility" : 1
				}

			}
, 			{
				"box" : 				{
					"angle" : 270.0,
					"bgcolor" : [ 0.294117647058824, 0.447058823529412, 0.431372549019608, 1.0 ],
					"bordercolor" : [ 0.290196078431373, 0.443137254901961, 0.427450980392157, 0.0 ],
					"id" : "obj-8",
					"maxclass" : "panel",
					"mode" : 0,
					"numinlets" : 1,
					"numoutlets" : 0,
					"patching_rect" : [ 165.0, 390.0, 128.0, 128.0 ],
					"presentation" : 1,
					"presentation_rect" : [ 0.0, 0.0, 450.0, 135.0 ],
					"proportion" : 0.5
				}

			}
, 			{
				"box" : 				{
					"bgcolor" : [ 0.247058823529412, 0.305882352941176, 0.309803921568627, 1.0 ],
					"blinkcolor" : [ 0.172549019607843, 0.211764705882353, 0.223529411764706, 1.0 ],
					"id" : "obj-29",
					"maxclass" : "button",
					"numinlets" : 1,
					"numoutlets" : 1,
					"outlettype" : [ "bang" ],
					"outlinecolor" : [ 0.549019607843137, 0.670588235294118, 0.631372549019608, 1.0 ],
					"parameter_enable" : 1,
					"patching_rect" : [ 974.756102561950684, 705.000003576278687, 75.0, 75.0 ],
					"presentation" : 1,
					"presentation_rect" : [ 210.0, 330.0, 75.0, 75.0 ],
					"saved_attribute_attributes" : 					{
						"valueof" : 						{
							"parameter_enum" : [ "off", "on" ],
							"parameter_type" : 2,
							"parameter_longname" : "button[7]",
							"parameter_mmax" : 1.0,
							"parameter_shortname" : "button[5]"
						}

					}
,
					"varname" : "mira_btn_reset"
				}

			}
, 			{
				"box" : 				{
					"angle" : 270.0,
					"bgcolor" : [ 0.341176470588235, 0.282352941176471, 0.32156862745098, 1.0 ],
					"id" : "obj-118",
					"maxclass" : "panel",
					"mode" : 0,
					"numinlets" : 1,
					"numoutlets" : 0,
					"patching_rect" : [ 2100.0, 75.0, 83.0, 83.0 ],
					"presentation" : 1,
					"presentation_rect" : [ 0.0, 135.0, 285.0, 75.0 ],
					"proportion" : 0.5,
					"rounded" : 0
				}

			}
, 			{
				"box" : 				{
					"angle" : 270.0,
					"bgcolor" : [ 0.294117647058824, 0.447058823529412, 0.431372549019608, 1.0 ],
					"id" : "obj-120",
					"maxclass" : "panel",
					"mode" : 0,
					"numinlets" : 1,
					"numoutlets" : 0,
					"patching_rect" : [ 529.0, 253.0, 83.0, 83.0 ],
					"presentation" : 1,
					"presentation_rect" : [ 0.0, 195.0, 285.106353759765625, 29.89361572265625 ],
					"proportion" : 0.5
				}

			}
, 			{
				"box" : 				{
					"background" : 1,
					"fontface" : 1,
					"id" : "obj-96",
					"maxclass" : "comment",
					"numinlets" : 0,
					"numoutlets" : 0,
					"patching_rect" : [ 765.0, 555.0, 210.0, 21.0 ],
					"suppressinlet" : 1,
					"text" : "MIRA GUI",
					"textcolor" : [ 0.341176480054855, 0.282352954149246, 0.321568638086319, 1.0 ]
				}

			}
, 			{
				"box" : 				{
					"background" : 1,
					"fontface" : 1,
					"id" : "obj-63",
					"maxclass" : "comment",
					"numinlets" : 0,
					"numoutlets" : 0,
					"patching_rect" : [ 990.0, 15.0, 173.0, 21.0 ],
					"suppressinlet" : 1,
					"text" : "Toggle UDP output",
					"textcolor" : [ 0.341176480054855, 0.282352954149246, 0.321568638086319, 1.0 ]
				}

			}
, 			{
				"box" : 				{
					"background" : 1,
					"fontface" : 1,
					"id" : "obj-41",
					"maxclass" : "comment",
					"numinlets" : 0,
					"numoutlets" : 0,
					"patching_rect" : [ 765.0, 210.0, 210.0, 21.0 ],
					"suppressinlet" : 1,
					"text" : "UDP sends",
					"textcolor" : [ 0.341176480054855, 0.282352954149246, 0.321568638086319, 1.0 ]
				}

			}
, 			{
				"box" : 				{
					"background" : 1,
					"fontface" : 1,
					"id" : "obj-162",
					"maxclass" : "comment",
					"numinlets" : 0,
					"numoutlets" : 0,
					"patching_rect" : [ 990.0, 225.0, 210.0, 21.0 ],
					"suppressinlet" : 1,
					"text" : "Serial port selection",
					"textcolor" : [ 0.341176480054855, 0.282352954149246, 0.321568638086319, 1.0 ]
				}

			}
, 			{
				"box" : 				{
					"angle" : 270.0,
					"background" : 1,
					"bgcolor" : [ 0.549019607843137, 0.670588235294118, 0.631372549019608, 1.0 ],
					"border" : 1,
					"bordercolor" : [ 0.996078431372549, 0.996078431372549, 0.996078431372549, 1.0 ],
					"id" : "obj-163",
					"maxclass" : "panel",
					"mode" : 0,
					"numinlets" : 1,
					"numoutlets" : 0,
					"patching_rect" : [ 990.0, 225.0, 285.59322714805603, 300.0 ],
					"proportion" : 0.5,
					"prototypename" : "backgroundPanel"
				}

			}
, 			{
				"box" : 				{
					"angle" : 270.0,
					"background" : 1,
					"bgcolor" : [ 0.549019607843137, 0.670588235294118, 0.631372549019608, 1.0 ],
					"border" : 1,
					"bordercolor" : [ 0.996078431372549, 0.996078431372549, 0.996078431372549, 1.0 ],
					"id" : "obj-42",
					"maxclass" : "panel",
					"mode" : 0,
					"numinlets" : 1,
					"numoutlets" : 0,
					"patching_rect" : [ 765.0, 210.0, 210.0, 135.0 ],
					"proportion" : 0.5,
					"prototypename" : "backgroundPanel"
				}

			}
, 			{
				"box" : 				{
					"background" : 1,
					"fontface" : 1,
					"id" : "obj-82",
					"maxclass" : "comment",
					"numinlets" : 0,
					"numoutlets" : 0,
					"patching_rect" : [ 1485.0, 15.0, 173.0, 21.0 ],
					"suppressinlet" : 1,
					"text" : "Control mode",
					"textcolor" : [ 0.341176480054855, 0.282352954149246, 0.321568638086319, 1.0 ]
				}

			}
, 			{
				"box" : 				{
					"angle" : 270.0,
					"background" : 1,
					"bgcolor" : [ 0.549019607843137, 0.670588235294118, 0.631372549019608, 1.0 ],
					"border" : 1,
					"bordercolor" : [ 0.996078431372549, 0.996078431372549, 0.996078431372549, 1.0 ],
					"id" : "obj-83",
					"maxclass" : "panel",
					"mode" : 0,
					"numinlets" : 1,
					"numoutlets" : 0,
					"patching_rect" : [ 1485.0, 15.0, 180.0, 165.0 ],
					"proportion" : 0.5,
					"prototypename" : "backgroundPanel"
				}

			}
, 			{
				"box" : 				{
					"background" : 1,
					"fontface" : 1,
					"id" : "obj-71",
					"maxclass" : "comment",
					"numinlets" : 0,
					"numoutlets" : 0,
					"patching_rect" : [ 1290.0, 15.0, 173.0, 21.0 ],
					"suppressinlet" : 1,
					"text" : "Toggle UDP input",
					"textcolor" : [ 0.341176480054855, 0.282352954149246, 0.321568638086319, 1.0 ]
				}

			}
, 			{
				"box" : 				{
					"angle" : 270.0,
					"background" : 1,
					"bgcolor" : [ 0.549019607843137, 0.670588235294118, 0.631372549019608, 1.0 ],
					"border" : 1,
					"bordercolor" : [ 0.996078431372549, 0.996078431372549, 0.996078431372549, 1.0 ],
					"id" : "obj-72",
					"maxclass" : "panel",
					"mode" : 0,
					"numinlets" : 1,
					"numoutlets" : 0,
					"patching_rect" : [ 1290.0, 15.0, 180.0, 195.0 ],
					"proportion" : 0.5,
					"prototypename" : "backgroundPanel"
				}

			}
, 			{
				"box" : 				{
					"background" : 1,
					"fontface" : 1,
					"id" : "obj-61",
					"maxclass" : "comment",
					"numinlets" : 0,
					"numoutlets" : 0,
					"patching_rect" : [ 765.0, 15.0, 135.0, 21.0 ],
					"suppressinlet" : 1,
					"text" : "Status checks",
					"textcolor" : [ 0.341176480054855, 0.282352954149246, 0.321568638086319, 1.0 ]
				}

			}
, 			{
				"box" : 				{
					"angle" : 270.0,
					"background" : 1,
					"bgcolor" : [ 0.549019607843137, 0.670588235294118, 0.631372549019608, 1.0 ],
					"border" : 1,
					"bordercolor" : [ 0.996078431372549, 0.996078431372549, 0.996078431372549, 1.0 ],
					"id" : "obj-23",
					"maxclass" : "panel",
					"mode" : 0,
					"numinlets" : 1,
					"numoutlets" : 0,
					"patching_rect" : [ 765.0, 15.0, 210.0, 180.0 ],
					"proportion" : 0.5,
					"prototypename" : "backgroundPanel"
				}

			}
, 			{
				"box" : 				{
					"angle" : 270.0,
					"background" : 1,
					"bgcolor" : [ 0.549019607843137, 0.670588235294118, 0.631372549019608, 1.0 ],
					"border" : 1,
					"bordercolor" : [ 0.996078431372549, 0.996078431372549, 0.996078431372549, 1.0 ],
					"id" : "obj-64",
					"maxclass" : "panel",
					"mode" : 0,
					"numinlets" : 1,
					"numoutlets" : 0,
					"patching_rect" : [ 990.0, 15.0, 285.0, 195.0 ],
					"proportion" : 0.5,
					"prototypename" : "backgroundPanel"
				}

			}
, 			{
				"box" : 				{
					"background" : 1,
					"color" : [ 0.172549019607843, 0.243137254901961, 0.313725490196078, 1.0 ],
					"id" : "obj-10",
					"ignoreclick" : 1,
					"maxclass" : "mira.frame",
					"numinlets" : 0,
					"numoutlets" : 0,
					"patching_rect" : [ 795.48779296875, 614.756103515625, 337.582426071166992, 240.0 ],
					"presentation" : 1,
					"presentation_rect" : [ 31.410255432128906, 240.0640869140625, 337.582426071166992, 240.0 ],
					"tabname" : "Recorder"
				}

			}
, 			{
				"box" : 				{
					"angle" : 270.0,
					"background" : 1,
					"bgcolor" : [ 0.247058823529412, 0.305882352941176, 0.309803921568627, 1.0 ],
					"border" : 1,
					"bordercolor" : [ 0.996078431372549, 0.996078431372549, 0.996078431372549, 1.0 ],
					"id" : "obj-97",
					"maxclass" : "panel",
					"mode" : 0,
					"numinlets" : 1,
					"numoutlets" : 0,
					"patching_rect" : [ 765.0, 555.0, 1170.0, 390.0 ],
					"presentation" : 1,
					"presentation_rect" : [ 15.0, 225.0, 360.0, 270.0 ],
					"proportion" : 0.5,
					"prototypename" : "backgroundPanel"
				}

			}
, 			{
				"box" : 				{
					"background" : 1,
					"fontface" : 1,
					"id" : "obj-109",
					"maxclass" : "comment",
					"numinlets" : 0,
					"numoutlets" : 0,
					"patching_rect" : [ 1680.0, 15.0, 150.0, 21.0 ],
					"suppressinlet" : 1,
					"text" : "quat points recording",
					"textcolor" : [ 0.341176480054855, 0.282352954149246, 0.321568638086319, 1.0 ]
				}

			}
, 			{
				"box" : 				{
					"angle" : 270.0,
					"background" : 1,
					"bgcolor" : [ 0.549019607843137, 0.670588235294118, 0.631372549019608, 1.0 ],
					"border" : 1,
					"bordercolor" : [ 0.996078431372549, 0.996078431372549, 0.996078431372549, 1.0 ],
					"id" : "obj-110",
					"maxclass" : "panel",
					"mode" : 0,
					"numinlets" : 1,
					"numoutlets" : 0,
					"patching_rect" : [ 1680.0, 15.0, 540.0, 405.0 ],
					"proportion" : 0.5,
					"prototypename" : "backgroundPanel"
				}

			}
 ],
		"lines" : [ 			{
				"patchline" : 				{
					"destination" : [ "obj-3", 6 ],
					"source" : [ "obj-100", 0 ]
				}

			}
, 			{
				"patchline" : 				{
					"destination" : [ "obj-250", 0 ],
					"source" : [ "obj-102", 0 ]
				}

			}
, 			{
				"patchline" : 				{
					"destination" : [ "obj-113", 1 ],
					"source" : [ "obj-103", 0 ]
				}

			}
, 			{
				"patchline" : 				{
					"destination" : [ "obj-91", 0 ],
					"source" : [ "obj-104", 0 ]
				}

			}
, 			{
				"patchline" : 				{
					"destination" : [ "obj-90", 0 ],
					"source" : [ "obj-105", 0 ]
				}

			}
, 			{
				"patchline" : 				{
					"destination" : [ "obj-237", 0 ],
					"source" : [ "obj-106", 0 ]
				}

			}
, 			{
				"patchline" : 				{
					"destination" : [ "obj-111", 0 ],
					"source" : [ "obj-108", 0 ]
				}

			}
, 			{
				"patchline" : 				{
					"destination" : [ "obj-51", 0 ],
					"source" : [ "obj-111", 0 ]
				}

			}
, 			{
				"patchline" : 				{
					"destination" : [ "obj-106", 0 ],
					"source" : [ "obj-113", 0 ]
				}

			}
, 			{
				"patchline" : 				{
					"destination" : [ "obj-113", 0 ],
					"source" : [ "obj-115", 0 ]
				}

			}
, 			{
				"patchline" : 				{
					"destination" : [ "obj-115", 0 ],
					"source" : [ "obj-116", 0 ]
				}

			}
, 			{
				"patchline" : 				{
					"destination" : [ "obj-138", 0 ],
					"source" : [ "obj-119", 0 ]
				}

			}
, 			{
				"patchline" : 				{
					"destination" : [ "obj-3", 4 ],
					"source" : [ "obj-124", 0 ]
				}

			}
, 			{
				"patchline" : 				{
					"destination" : [ "obj-318", 0 ],
					"source" : [ "obj-125", 0 ]
				}

			}
, 			{
				"patchline" : 				{
					"destination" : [ "obj-123", 0 ],
					"source" : [ "obj-128", 0 ]
				}

			}
, 			{
				"patchline" : 				{
					"destination" : [ "obj-131", 0 ],
					"source" : [ "obj-129", 0 ]
				}

			}
, 			{
				"patchline" : 				{
					"destination" : [ "obj-158", 0 ],
					"source" : [ "obj-130", 0 ]
				}

			}
, 			{
				"patchline" : 				{
					"destination" : [ "obj-154", 0 ],
					"source" : [ "obj-131", 0 ]
				}

			}
, 			{
				"patchline" : 				{
					"destination" : [ "obj-142", 1 ],
					"source" : [ "obj-132", 0 ]
				}

			}
, 			{
				"patchline" : 				{
					"destination" : [ "obj-125", 0 ],
					"source" : [ "obj-133", 0 ]
				}

			}
, 			{
				"patchline" : 				{
					"destination" : [ "obj-146", 0 ],
					"source" : [ "obj-137", 0 ]
				}

			}
, 			{
				"patchline" : 				{
					"destination" : [ "obj-158", 0 ],
					"source" : [ "obj-138", 0 ]
				}

			}
, 			{
				"patchline" : 				{
					"destination" : [ "obj-292", 0 ],
					"source" : [ "obj-140", 0 ]
				}

			}
, 			{
				"patchline" : 				{
					"destination" : [ "obj-54", 0 ],
					"source" : [ "obj-142", 0 ]
				}

			}
, 			{
				"patchline" : 				{
					"destination" : [ "obj-140", 0 ],
					"source" : [ "obj-146", 1 ]
				}

			}
, 			{
				"patchline" : 				{
					"destination" : [ "obj-148", 0 ],
					"source" : [ "obj-146", 0 ]
				}

			}
, 			{
				"patchline" : 				{
					"destination" : [ "obj-95", 0 ],
					"source" : [ "obj-148", 0 ]
				}

			}
, 			{
				"patchline" : 				{
					"destination" : [ "obj-2", 2 ],
					"source" : [ "obj-15", 0 ]
				}

			}
, 			{
				"patchline" : 				{
					"destination" : [ "obj-149", 0 ],
					"source" : [ "obj-150", 0 ]
				}

			}
, 			{
				"patchline" : 				{
					"destination" : [ "obj-150", 0 ],
					"source" : [ "obj-154", 0 ]
				}

			}
, 			{
				"patchline" : 				{
					"destination" : [ "obj-159", 0 ],
					"source" : [ "obj-154", 1 ]
				}

			}
, 			{
				"patchline" : 				{
					"destination" : [ "obj-161", 0 ],
					"source" : [ "obj-154", 2 ]
				}

			}
, 			{
				"patchline" : 				{
					"destination" : [ "obj-164", 0 ],
					"source" : [ "obj-159", 0 ]
				}

			}
, 			{
				"patchline" : 				{
					"destination" : [ "obj-2", 0 ],
					"source" : [ "obj-16", 0 ]
				}

			}
, 			{
				"patchline" : 				{
					"destination" : [ "obj-171", 0 ],
					"source" : [ "obj-161", 0 ]
				}

			}
, 			{
				"patchline" : 				{
					"destination" : [ "obj-168", 0 ],
					"source" : [ "obj-165", 1 ]
				}

			}
, 			{
				"patchline" : 				{
					"destination" : [ "obj-172", 0 ],
					"source" : [ "obj-166", 0 ]
				}

			}
, 			{
				"patchline" : 				{
					"destination" : [ "obj-166", 0 ],
					"source" : [ "obj-167", 0 ]
				}

			}
, 			{
				"patchline" : 				{
					"destination" : [ "obj-167", 0 ],
					"source" : [ "obj-168", 0 ]
				}

			}
, 			{
				"patchline" : 				{
					"destination" : [ "obj-180", 0 ],
					"source" : [ "obj-169", 1 ]
				}

			}
, 			{
				"patchline" : 				{
					"destination" : [ "obj-2", 3 ],
					"source" : [ "obj-17", 0 ]
				}

			}
, 			{
				"patchline" : 				{
					"destination" : [ "obj-170", 0 ],
					"source" : [ "obj-173", 0 ]
				}

			}
, 			{
				"patchline" : 				{
					"destination" : [ "obj-165", 0 ],
					"source" : [ "obj-174", 0 ]
				}

			}
, 			{
				"patchline" : 				{
					"destination" : [ "obj-172", 0 ],
					"source" : [ "obj-174", 1 ]
				}

			}
, 			{
				"patchline" : 				{
					"destination" : [ "obj-177", 0 ],
					"source" : [ "obj-175", 0 ]
				}

			}
, 			{
				"patchline" : 				{
					"destination" : [ "obj-178", 0 ],
					"source" : [ "obj-176", 0 ]
				}

			}
, 			{
				"patchline" : 				{
					"destination" : [ "obj-169", 0 ],
					"source" : [ "obj-179", 0 ]
				}

			}
, 			{
				"patchline" : 				{
					"destination" : [ "obj-2", 1 ],
					"source" : [ "obj-182", 0 ]
				}

			}
, 			{
				"patchline" : 				{
					"destination" : [ "obj-174", 0 ],
					"source" : [ "obj-188", 0 ]
				}

			}
, 			{
				"patchline" : 				{
					"destination" : [ "obj-187", 0 ],
					"source" : [ "obj-189", 0 ]
				}

			}
, 			{
				"patchline" : 				{
					"destination" : [ "obj-22", 0 ],
					"order" : 0,
					"source" : [ "obj-2", 0 ]
				}

			}
, 			{
				"patchline" : 				{
					"destination" : [ "obj-5", 0 ],
					"source" : [ "obj-2", 4 ]
				}

			}
, 			{
				"patchline" : 				{
					"destination" : [ "obj-6", 0 ],
					"source" : [ "obj-2", 3 ]
				}

			}
, 			{
				"patchline" : 				{
					"destination" : [ "obj-77", 0 ],
					"order" : 1,
					"source" : [ "obj-2", 0 ]
				}

			}
, 			{
				"patchline" : 				{
					"destination" : [ "obj-240", 1 ],
					"source" : [ "obj-237", 0 ]
				}

			}
, 			{
				"patchline" : 				{
					"destination" : [ "obj-240", 0 ],
					"source" : [ "obj-239", 0 ]
				}

			}
, 			{
				"patchline" : 				{
					"destination" : [ "obj-119", 0 ],
					"source" : [ "obj-240", 0 ]
				}

			}
, 			{
				"patchline" : 				{
					"destination" : [ "obj-130", 1 ],
					"source" : [ "obj-250", 0 ]
				}

			}
, 			{
				"patchline" : 				{
					"destination" : [ "obj-2", 1 ],
					"source" : [ "obj-26", 0 ]
				}

			}
, 			{
				"patchline" : 				{
					"destination" : [ "obj-28", 0 ],
					"source" : [ "obj-27", 0 ]
				}

			}
, 			{
				"patchline" : 				{
					"destination" : [ "obj-30", 0 ],
					"source" : [ "obj-28", 0 ]
				}

			}
, 			{
				"patchline" : 				{
					"destination" : [ "obj-32", 0 ],
					"source" : [ "obj-28", 2 ]
				}

			}
, 			{
				"patchline" : 				{
					"destination" : [ "obj-76", 0 ],
					"source" : [ "obj-28", 1 ]
				}

			}
, 			{
				"patchline" : 				{
					"destination" : [ "obj-294", 0 ],
					"source" : [ "obj-292", 1 ]
				}

			}
, 			{
				"patchline" : 				{
					"destination" : [ "obj-316", 0 ],
					"source" : [ "obj-292", 0 ]
				}

			}
, 			{
				"patchline" : 				{
					"destination" : [ "obj-130", 0 ],
					"source" : [ "obj-294", 0 ]
				}

			}
, 			{
				"patchline" : 				{
					"destination" : [ "obj-158", 0 ],
					"source" : [ "obj-294", 1 ]
				}

			}
, 			{
				"patchline" : 				{
					"destination" : [ "obj-95", 1 ],
					"source" : [ "obj-294", 2 ]
				}

			}
, 			{
				"patchline" : 				{
					"destination" : [ "obj-14", 0 ],
					"order" : 0,
					"source" : [ "obj-3", 1 ]
				}

			}
, 			{
				"patchline" : 				{
					"destination" : [ "obj-160", 0 ],
					"order" : 1,
					"source" : [ "obj-3", 1 ]
				}

			}
, 			{
				"patchline" : 				{
					"destination" : [ "obj-24", 0 ],
					"order" : 0,
					"source" : [ "obj-3", 0 ]
				}

			}
, 			{
				"patchline" : 				{
					"destination" : [ "obj-4", 0 ],
					"source" : [ "obj-3", 2 ]
				}

			}
, 			{
				"patchline" : 				{
					"destination" : [ "obj-56", 0 ],
					"order" : 1,
					"source" : [ "obj-3", 0 ]
				}

			}
, 			{
				"patchline" : 				{
					"destination" : [ "obj-130", 0 ],
					"source" : [ "obj-316", 0 ]
				}

			}
, 			{
				"patchline" : 				{
					"destination" : [ "obj-235", 0 ],
					"source" : [ "obj-318", 0 ]
				}

			}
, 			{
				"patchline" : 				{
					"destination" : [ "obj-46", 0 ],
					"source" : [ "obj-37", 1 ]
				}

			}
, 			{
				"patchline" : 				{
					"destination" : [ "obj-38", 0 ],
					"source" : [ "obj-39", 0 ]
				}

			}
, 			{
				"patchline" : 				{
					"destination" : [ "obj-37", 0 ],
					"source" : [ "obj-40", 0 ]
				}

			}
, 			{
				"patchline" : 				{
					"destination" : [ "obj-38", 0 ],
					"source" : [ "obj-43", 0 ]
				}

			}
, 			{
				"patchline" : 				{
					"destination" : [ "obj-2", 2 ],
					"source" : [ "obj-44", 0 ]
				}

			}
, 			{
				"patchline" : 				{
					"destination" : [ "obj-40", 0 ],
					"source" : [ "obj-45", 1 ]
				}

			}
, 			{
				"patchline" : 				{
					"destination" : [ "obj-48", 0 ],
					"source" : [ "obj-45", 0 ]
				}

			}
, 			{
				"patchline" : 				{
					"destination" : [ "obj-132", 0 ],
					"source" : [ "obj-46", 1 ]
				}

			}
, 			{
				"patchline" : 				{
					"destination" : [ "obj-142", 0 ],
					"source" : [ "obj-46", 0 ]
				}

			}
, 			{
				"patchline" : 				{
					"destination" : [ "obj-54", 0 ],
					"source" : [ "obj-48", 0 ]
				}

			}
, 			{
				"patchline" : 				{
					"destination" : [ "obj-117", 0 ],
					"source" : [ "obj-51", 0 ]
				}

			}
, 			{
				"patchline" : 				{
					"destination" : [ "obj-88", 0 ],
					"source" : [ "obj-55", 0 ]
				}

			}
, 			{
				"patchline" : 				{
					"destination" : [ "obj-51", 0 ],
					"source" : [ "obj-57", 0 ]
				}

			}
, 			{
				"patchline" : 				{
					"destination" : [ "obj-100", 0 ],
					"source" : [ "obj-58", 0 ]
				}

			}
, 			{
				"patchline" : 				{
					"destination" : [ "obj-18", 0 ],
					"source" : [ "obj-6", 1 ]
				}

			}
, 			{
				"patchline" : 				{
					"destination" : [ "obj-58", 0 ],
					"source" : [ "obj-6", 0 ]
				}

			}
, 			{
				"patchline" : 				{
					"destination" : [ "obj-89", 1 ],
					"source" : [ "obj-60", 0 ]
				}

			}
, 			{
				"patchline" : 				{
					"destination" : [ "obj-45", 0 ],
					"source" : [ "obj-62", 0 ]
				}

			}
, 			{
				"patchline" : 				{
					"destination" : [ "obj-105", 0 ],
					"source" : [ "obj-65", 0 ]
				}

			}
, 			{
				"patchline" : 				{
					"destination" : [ "obj-2", 0 ],
					"source" : [ "obj-66", 0 ]
				}

			}
, 			{
				"patchline" : 				{
					"destination" : [ "obj-80", 0 ],
					"source" : [ "obj-67", 0 ]
				}

			}
, 			{
				"patchline" : 				{
					"destination" : [ "obj-2", 0 ],
					"source" : [ "obj-7", 0 ]
				}

			}
, 			{
				"patchline" : 				{
					"destination" : [ "obj-3", 0 ],
					"source" : [ "obj-73", 0 ]
				}

			}
, 			{
				"patchline" : 				{
					"destination" : [ "obj-3", 1 ],
					"source" : [ "obj-74", 0 ]
				}

			}
, 			{
				"patchline" : 				{
					"destination" : [ "obj-3", 3 ],
					"source" : [ "obj-75", 0 ]
				}

			}
, 			{
				"patchline" : 				{
					"destination" : [ "obj-3", 2 ],
					"source" : [ "obj-78", 0 ]
				}

			}
, 			{
				"patchline" : 				{
					"destination" : [ "obj-67", 0 ],
					"source" : [ "obj-79", 0 ]
				}

			}
, 			{
				"patchline" : 				{
					"destination" : [ "obj-79", 0 ],
					"source" : [ "obj-81", 0 ]
				}

			}
, 			{
				"patchline" : 				{
					"destination" : [ "obj-104", 0 ],
					"source" : [ "obj-84", 0 ]
				}

			}
, 			{
				"patchline" : 				{
					"destination" : [ "obj-60", 0 ],
					"source" : [ "obj-88", 1 ]
				}

			}
, 			{
				"patchline" : 				{
					"destination" : [ "obj-89", 1 ],
					"source" : [ "obj-88", 0 ]
				}

			}
, 			{
				"patchline" : 				{
					"destination" : [ "obj-55", 0 ],
					"source" : [ "obj-89", 0 ]
				}

			}
, 			{
				"patchline" : 				{
					"destination" : [ "obj-3", 0 ],
					"source" : [ "obj-9", 0 ]
				}

			}
, 			{
				"patchline" : 				{
					"destination" : [ "obj-89", 0 ],
					"source" : [ "obj-90", 0 ]
				}

			}
, 			{
				"patchline" : 				{
					"destination" : [ "obj-89", 0 ],
					"source" : [ "obj-91", 0 ]
				}

			}
, 			{
				"patchline" : 				{
					"destination" : [ "obj-103", 0 ],
					"source" : [ "obj-95", 0 ]
				}

			}
 ],
		"patchlinecolor" : [ 0.823529411764706, 0.788235294117647, 0.647058823529412, 1.0 ],
		"clearcolor" : [ 1.0, 1.0, 1.0, 0.5 ],
		"bgcolor" : [ 0.517647058823529, 0.470588235294118, 0.458823529411765, 1.0 ],
		"editing_bgcolor" : [ 0.670588235294118, 0.607843137254902, 0.556862745098039, 1.0 ]
	}

}
